<svg xmlns="http://www.w3.org/2000/svg" viewBox="0 0 750 500"><g id="freepik--background-simple--inject-189"><path d="M692.76,364.88c17.27-32,19.82-68.47,15.77-103.71-3.59-31.26-9-67.12-24.17-95.33C646,94.36,548.89,60.81,470.07,82.3c-32.88,9-55.94,29.75-82.33,49.53-19.52,14.62-40.93,28.89-66.15,31.81-60.39,7-129.12-50-186.39-45s-102,56-104.13,100,41.65,89,37.49,119-31.24,110,76,113,163.48-57,205.14-44,133.28,51,210.33,41c50.27-6.53,99.42-31.21,127-73.15Q690.13,369.78,692.76,364.88Z" style="fill:#0A5F5F"></path><path d="M692.76,364.88c17.27-32,19.82-68.47,15.77-103.71-3.59-31.26-9-67.12-24.17-95.33C646,94.36,548.89,60.81,470.07,82.3c-32.88,9-55.94,29.75-82.33,49.53-19.52,14.62-40.93,28.89-66.15,31.81-60.39,7-129.12-50-186.39-45s-102,56-104.13,100,41.65,89,37.49,119-31.24,110,76,113,163.48-57,205.14-44,133.28,51,210.33,41c50.27-6.53,99.42-31.21,127-73.15Q690.13,369.78,692.76,364.88Z" style="fill:#fff;opacity:0.8"></path></g><g id="freepik--Clouds--inject-189"><path d="M394,75.93H307.52l2.23-3c1.17-1.55,2.94-1.54,4.23-1.53a3.17,3.17,0,0,0,1.59-.2,5.69,5.69,0,0,0,.92-1.29,15.13,15.13,0,0,1,5.65-5.81c2.55-1.5,5.28-1,7.27-.6s2.86.45,3.11-.46c1-3.69,3.54-7.43,7.62-6.89a25.53,25.53,0,0,1,3.52.82c3.45,1,5.61,1.41,6.56-.8,1.65-3.86,4.78-8.81,12.8-7.09,7.69,1.65,11,10.06,11.23,10.63,1.64,3.52,4.76,3.2,8.38,2.84,3.14-.32,6.39-.64,8.9,1.61,5.38,4.8,2.6,11.38,2.57,11.45Zm-84.45-1H393.3a9.1,9.1,0,0,0-2.44-10c-2.18-2-5.2-1.65-8.13-1.36-3.67.37-7.46.75-9.39-3.43l0,0c0-.08-3.26-8.47-10.51-10s-10,2.67-11.67,6.51c-1.36,3.16-4.61,2.25-7.75,1.36a24.32,24.32,0,0,0-3.39-.79c-4.32-.58-6.08,4.57-6.52,6.16-.52,1.89-2.33,1.55-4.25,1.18s-4.36-.83-6.58.48a14.32,14.32,0,0,0-5.31,5.47A5.45,5.45,0,0,1,316.16,72a3.66,3.66,0,0,1-2.19.4c-1.26,0-2.56,0-3.42,1.13Z" style="fill:#263238"></path><path d="M171.76,147.16H85.31l2.23-3c1.16-1.55,2.93-1.54,4.23-1.53a3.24,3.24,0,0,0,1.58-.2,5.33,5.33,0,0,0,.92-1.29,15.28,15.28,0,0,1,5.65-5.81c2.56-1.5,5.29-1,7.28-.6s2.85.45,3.1-.46c1-3.69,3.54-7.44,7.62-6.9a26.75,26.75,0,0,1,3.52.83c3.45,1,5.62,1.4,6.56-.8,1.66-3.87,4.79-8.81,12.8-7.09,7.7,1.65,11,10.06,11.24,10.63,1.63,3.52,4.76,3.2,8.38,2.84,3.14-.32,6.38-.65,8.9,1.6,5.37,4.81,2.6,11.39,2.57,11.45Zm-84.45-1h83.78a9.14,9.14,0,0,0-2.44-10c-2.19-2-5.21-1.65-8.13-1.36-3.67.37-7.47.75-9.4-3.43v0c0-.08-3.26-8.47-10.52-10s-10,2.66-11.67,6.5c-1.36,3.17-4.61,2.25-7.75,1.37a24.53,24.53,0,0,0-3.38-.79c-4.33-.57-6.09,4.57-6.52,6.16-.52,1.89-2.34,1.54-4.26,1.18s-4.35-.83-6.58.48a14.21,14.21,0,0,0-5.3,5.47A5.84,5.84,0,0,1,94,143.25a3.68,3.68,0,0,1-2.19.4c-1.25,0-2.56,0-3.42,1.13Z" style="fill:#263238"></path><path d="M678,125.59H527.3l3.46-4.62c1.93-2.56,4.81-2.54,7.11-2.53a5.52,5.52,0,0,0,3-.43,9.43,9.43,0,0,0,1.71-2.36,26.37,26.37,0,0,1,9.79-10.07c4.35-2.56,8.87-1.7,12.5-1s5.33.92,5.87-1.08c1.73-6.32,6-12.73,13-11.81a45,45,0,0,1,6.12,1.43c5.39,1.52,10,2.84,12-1.61,2.85-6.66,8.24-15.17,22-12.22C637.07,82.12,643,97.07,643.26,97.7c3,6.43,8.85,5.83,15.08,5.21,5.43-.55,11-1.11,15.32,2.73,9.23,8.25,4.47,19.54,4.42,19.65Zm-148.65-1h148c.69-1.81,3.68-11.08-4.29-18.21-4-3.54-9.34-3-14.55-2.47-6.31.63-12.83,1.28-16.1-5.8v0c-.06-.15-5.79-15-18.72-17.81s-18,4.76-20.9,11.63c-2.26,5.26-7.8,3.69-13.15,2.18a45.71,45.71,0,0,0-6-1.4c-7.9-1-11.07,8.22-11.85,11.08s-3.69,2.44-7,1.8-7.78-1.48-11.81.89a25.55,25.55,0,0,0-9.43,9.72,9.73,9.73,0,0,1-2,2.65c-.86.65-2.13.64-3.61.63-2.2,0-4.68,0-6.31,2.13Z" style="fill:#263238"></path></g><g id="freepik--Trees--inject-189"><path d="M738.15,237.83c0,45.11-25.3,48.52-56.5,48.52s-56.5-3.41-56.5-48.52,25.3-139.4,56.5-139.4S738.15,192.72,738.15,237.83Z" style="fill:#0A5F5F"></path><path d="M738.15,237.83c0,45.11-25.3,48.52-56.5,48.52s-56.5-3.41-56.5-48.52,25.3-139.4,56.5-139.4S738.15,192.72,738.15,237.83Z" style="fill:#fff;opacity:0.5"></path><polygon points="700.75 258.3 691.41 258.94 715.75 242.53 698.37 251.32 700.75 244.46 692.8 254.13 683.48 258.84 682.74 226.45 687.68 214.46 682.62 221.2 682.19 202.42 697.68 181.78 682.09 197.74 681.14 156.4 680.31 182.86 670.38 171.78 680.15 187.94 678.83 229.85 670.18 224.2 662.3 210.23 665.46 221.11 650 211 678.64 235.71 674.3 373.27 686.1 373.27 683.61 264.2 686.33 262.37 700.75 258.3" style="fill:#8f8f8f"></polygon><path d="M535.27,237.83c0,45.11-25.29,48.52-56.5,48.52s-56.5-3.41-56.5-48.52,25.3-139.4,56.5-139.4S535.27,192.72,535.27,237.83Z" style="fill:#0A5F5F"></path><path d="M535.27,237.83c0,45.11-25.29,48.52-56.5,48.52s-56.5-3.41-56.5-48.52,25.3-139.4,56.5-139.4S535.27,192.72,535.27,237.83Z" style="fill:#fff;opacity:0.5"></path><polygon points="497.88 258.3 488.53 258.94 512.87 242.53 495.49 251.32 497.88 244.46 489.93 254.13 480.61 258.84 479.87 226.45 484.8 214.46 479.75 221.2 479.32 202.42 494.8 181.78 479.21 197.74 478.26 156.4 477.43 182.86 467.5 171.78 477.27 187.94 475.95 229.85 467.3 224.2 459.42 210.23 462.58 221.11 447.12 211 475.76 235.71 471.43 373.27 483.22 373.27 480.73 264.2 483.45 262.37 497.88 258.3" style="fill:#8f8f8f"></polygon><path d="M332.39,237.83c0,45.11-25.29,48.52-56.49,48.52s-56.5-3.41-56.5-48.52,25.29-139.4,56.5-139.4S332.39,192.72,332.39,237.83Z" style="fill:#0A5F5F"></path><path d="M332.39,237.83c0,45.11-25.29,48.52-56.49,48.52s-56.5-3.41-56.5-48.52,25.29-139.4,56.5-139.4S332.39,192.72,332.39,237.83Z" style="fill:#fff;opacity:0.5"></path><polygon points="295 258.3 285.65 258.94 310 242.53 292.61 251.32 295 244.46 287.05 254.13 277.73 258.84 276.99 226.45 281.93 214.46 276.87 221.2 276.44 202.42 291.92 181.78 276.33 197.74 275.39 156.4 274.55 182.86 264.62 171.78 274.39 187.94 273.07 229.85 264.42 224.2 256.55 210.23 259.7 221.11 244.24 211 272.89 235.71 268.55 373.27 280.34 373.27 277.85 264.2 280.58 262.37 295 258.3" style="fill:#8f8f8f"></polygon><path d="M129.52,237.83c0,45.11-25.3,48.52-56.5,48.52s-56.5-3.41-56.5-48.52S41.82,98.43,73,98.43,129.52,192.72,129.52,237.83Z" style="fill:#0A5F5F"></path><path d="M129.52,237.83c0,45.11-25.3,48.52-56.5,48.52s-56.5-3.41-56.5-48.52S41.82,98.43,73,98.43,129.52,192.72,129.52,237.83Z" style="fill:#fff;opacity:0.5"></path><polygon points="92.12 258.3 82.78 258.94 107.12 242.53 89.73 251.32 92.12 244.46 84.17 254.13 74.85 258.84 74.11 226.45 79.05 214.46 73.99 221.2 73.56 202.42 89.05 181.78 73.46 197.74 72.51 156.4 71.68 182.86 61.74 171.78 71.52 187.94 70.19 229.85 61.55 224.2 53.67 210.23 56.83 221.11 41.37 211 70.01 235.71 65.67 373.27 77.47 373.27 74.97 264.2 77.7 262.37 92.12 258.3" style="fill:#8f8f8f"></polygon></g><g id="freepik--Floor--inject-189"><path d="M736.2,446.46H11.34a.51.51,0,0,1-.5-.5.5.5,0,0,1,.5-.5H736.2a.5.5,0,0,1,.5.5A.5.5,0,0,1,736.2,446.46Z" style="fill:#263238"></path><path d="M736.2,373.33H11.34a.5.5,0,1,1,0-1H736.2a.5.5,0,0,1,0,1Z" style="fill:#263238"></path></g><g id="freepik--character-2--inject-189"><path d="M550.77,298.17s7.28,5.39,20.21,12.93,17.78,8.62,19.13,8.89,52-15.35,52-15.35,1.34,3.23,3,6.73,3.23,10.51,3,12.93,5.12,0,5.66-1.07,2.16-9.16,1.62-11.86-3.24-10.24-3.24-11.85,2.7-7-3.5-7.28-11.31,6.47-12.12,7-14,3.5-22.9,1.08-22.9-1.62-22.9-1.62a136.28,136.28,0,0,0-13.74-18.32c-7.28-7.82-10-9.7-10-9.7Z" style="fill:#fff"></path><path d="M649.1,325.84a2.09,2.09,0,0,1-.63-.08,1.28,1.28,0,0,1-.93-1.51c.26-2.34-1.33-9.21-2.92-12.67-1.27-2.74-2.38-5.34-2.8-6.33-12.39,3.82-50.49,15.5-51.81,15.23-5-1-13.22-5.41-19.28-9-12.81-7.47-20.18-12.9-20.26-13a.5.5,0,0,1-.13-.65l16.17-27.49a.48.48,0,0,1,.32-.23.49.49,0,0,1,.39.08c.12.08,2.82,2,10,9.77a135.27,135.27,0,0,1,13.64,18.15c2.09-.11,14.62-.58,22.77,1.64,8.84,2.41,21.73-.57,22.5-1,.09-.06.4-.39.71-.71,1.9-2,6.39-6.57,11.7-6.38a4.88,4.88,0,0,1,3.85,1.56c1.13,1.47.67,3.53.34,5a7.66,7.66,0,0,0-.2,1.19,42.57,42.57,0,0,0,1.69,6.36c.66,2.16,1.29,4.2,1.53,5.39.57,2.87-1.09,11-1.66,12.18C653.68,324.37,650.85,325.84,649.1,325.84Zm-7-21.7a.5.5,0,0,1,.46.3s1.36,3.27,2.95,6.72c1.69,3.65,3.29,10.68,3,13.2,0,.36.1.41.23.44,1.17.35,4.19-1.22,4.48-1.8.48-.95,2.1-8.92,1.58-11.53-.23-1.14-.88-3.26-1.51-5.3a39.57,39.57,0,0,1-1.73-6.65,6.9,6.9,0,0,1,.23-1.41c.29-1.31.68-3.1-.16-4.2a4,4,0,0,0-3.1-1.17c-4.9-.24-9.13,4.19-10.94,6.07a7.93,7.93,0,0,1-.88.85c-1,.64-14.41,3.58-23.31,1.15-8.71-2.38-22.61-1.61-22.75-1.6a.5.5,0,0,1-.45-.24,135.69,135.69,0,0,0-13.68-18.24,103.39,103.39,0,0,0-9.46-9.3L551.43,298c1.63,1.17,8.64,6.13,19.8,12.64,8.6,5,15.16,8.07,19,8.83,1.52,0,31.79-9.18,51.75-15.34A.39.39,0,0,1,642.11,304.14Z" style="fill:#263238"></path><path d="M576.91,280.39c-7.28-7.82-10-9.7-10-9.7l-16.17,27.48s7.28,5.39,20.21,12.93l1.92,1.11c3-4.53,9.17-13.19,14.76-18.06A122.31,122.31,0,0,0,576.91,280.39Z" style="fill:#263238"></path><path d="M572.9,312.71a.55.55,0,0,1-.25-.07l-1.92-1.11c-12.81-7.47-20.18-12.9-20.26-13a.5.5,0,0,1-.13-.65l16.17-27.49a.48.48,0,0,1,.32-.23.49.49,0,0,1,.39.08c.12.08,2.82,2,10,9.77a122.73,122.73,0,0,1,10.81,13.82.51.51,0,0,1-.09.66c-5.51,4.79-11.56,13.3-14.68,18A.48.48,0,0,1,572.9,312.71ZM551.43,298c1.63,1.17,8.64,6.13,19.8,12.64l1.51.87c3.15-4.66,8.91-12.69,14.26-17.47a120.67,120.67,0,0,0-10.46-13.34h0a103.39,103.39,0,0,0-9.46-9.3Z" style="fill:#263238"></path><path d="M652.07,299.52c0-1.62,2.7-7-3.5-7.28s-11.31,6.47-12.12,7a23.48,23.48,0,0,1-4.58,1.1,27.53,27.53,0,0,1,1.53,7l8.71-2.67s1.34,3.23,3,6.73,3.23,10.51,3,12.93,5.12,0,5.66-1.07,2.16-9.16,1.62-11.86S652.07,301.13,652.07,299.52Z" style="fill:#fff"></path><path d="M649.1,325.84a2.09,2.09,0,0,1-.63-.08,1.28,1.28,0,0,1-.93-1.51c.26-2.34-1.33-9.21-2.92-12.67-1.27-2.74-2.38-5.34-2.8-6.33l-8.27,2.54a.51.51,0,0,1-.43-.07.49.49,0,0,1-.21-.37,27.25,27.25,0,0,0-1.51-6.83.51.51,0,0,1,0-.42.49.49,0,0,1,.35-.24,25.19,25.19,0,0,0,4.4-1c.09-.06.4-.39.71-.71,1.9-2,6.39-6.57,11.7-6.38a4.88,4.88,0,0,1,3.85,1.56c1.13,1.47.67,3.53.34,5a7.66,7.66,0,0,0-.2,1.19,42.57,42.57,0,0,0,1.69,6.36c.66,2.16,1.29,4.2,1.53,5.39.57,2.87-1.09,11-1.66,12.18C653.68,324.37,650.85,325.84,649.1,325.84Zm-7-21.7a.5.5,0,0,1,.46.3s1.36,3.27,2.95,6.72c1.69,3.65,3.29,10.68,3,13.2,0,.36.1.41.23.44,1.17.35,4.19-1.22,4.48-1.8.48-.95,2.1-8.92,1.58-11.53-.23-1.14-.88-3.26-1.51-5.3a39.57,39.57,0,0,1-1.73-6.65,6.9,6.9,0,0,1,.23-1.41c.29-1.31.68-3.1-.16-4.2a4,4,0,0,0-3.1-1.17c-4.9-.24-9.13,4.19-10.94,6.07a7.93,7.93,0,0,1-.88.85,19.25,19.25,0,0,1-4.2,1.08,27.22,27.22,0,0,1,1.31,5.91l8.12-2.49A.39.39,0,0,1,642.11,304.14Z" style="fill:#263238"></path><path d="M642.11,304.64s1.34,3.23,3,6.73,3.23,10.51,3,12.93,5.12,0,5.66-1.07,2.16-9.16,1.62-11.86-3.24-10.24-3.24-11.85,2.7-7-3.5-7.28-11.31,6.47-12.12,7c0,0,5.66.54,6.73.81S642.11,304.64,642.11,304.64Z" style="fill:#fff"></path><path d="M649.1,325.84a2.09,2.09,0,0,1-.63-.08,1.28,1.28,0,0,1-.93-1.51c.26-2.34-1.33-9.21-2.92-12.67s-3-6.72-3-6.75a.51.51,0,0,1,0-.42,10.63,10.63,0,0,0,1.32-3.89c-1-.22-5.06-.63-6.58-.77a.5.5,0,0,1-.44-.38.52.52,0,0,1,.21-.54,8.51,8.51,0,0,0,.72-.71c1.9-2,6.39-6.57,11.7-6.38a4.88,4.88,0,0,1,3.85,1.56c1.13,1.47.67,3.53.34,5a7.66,7.66,0,0,0-.2,1.19,42.57,42.57,0,0,0,1.69,6.36c.66,2.16,1.29,4.2,1.53,5.39.57,2.87-1.09,11-1.66,12.18C653.68,324.37,650.85,325.84,649.1,325.84Zm-6.44-21.19c.32.77,1.5,3.56,2.86,6.51,1.69,3.65,3.29,10.68,3,13.2,0,.36.1.41.23.44,1.17.35,4.19-1.22,4.48-1.8.48-.95,2.1-8.92,1.58-11.53-.23-1.14-.88-3.26-1.51-5.3a39.57,39.57,0,0,1-1.73-6.65,6.9,6.9,0,0,1,.23-1.41c.29-1.31.68-3.1-.16-4.2a4,4,0,0,0-3.1-1.17c-4.9-.24-9.13,4.19-10.94,6.07l0,.05c1.71.17,4.92.51,5.73.71a.81.81,0,0,1,.57.48C644.32,301,643.24,303.45,642.66,304.65Z" style="fill:#263238"></path><path d="M529.51,287.88s-23.27,23.49-26.22,33.92L484,384.18l4.54,7.49s7.93-13.38,21.77-32.21c9.55-13,9.76-29.94,9.76-29.94s30.16-23.59,37-28.13,17.47-12.93,16.33-21.55-11.7-19.54-15.15-20.09S529.51,287.88,529.51,287.88Z" style="fill:#fff"></path><path d="M488.55,392.17a.5.5,0,0,1-.43-.24l-4.54-7.49a.51.51,0,0,1-.05-.4l19.28-62.38c2.94-10.4,25.24-33,26.34-34.12,4.22-4.79,25.13-28.29,29-28.29h.13c3.81.61,14.44,11.93,15.57,20.53,1.1,8.35-8.4,16.59-16.55,22-6.44,4.29-34.21,26-36.76,28-.08,2.13-.93,17.85-9.85,30-13.66,18.59-21.66,32-21.74,32.17a.5.5,0,0,1-.43.25Zm-4-8.05,4,6.58c1.83-3,9.46-15.33,21.37-31.54,9.35-12.72,9.65-29.48,9.66-29.65a.51.51,0,0,1,.19-.39c.3-.23,30.26-23.65,37-28.15,7.92-5.28,17.15-13.22,16.11-21.06-1.11-8.5-11.62-19.17-14.73-19.67-2.09-.36-16.1,14.17-28.26,28l0,0c-.24.24-23.22,23.52-26.1,33.71Zm45-96.24h0Z" style="fill:#263238"></path><path d="M573.38,279.84c-1.13-8.62-11.7-19.54-15.15-20.09s-28.72,28.13-28.72,28.13a262.43,262.43,0,0,0-18.13,20.52c5.49.59,15.45,2.75,22.25,10.59,9-6.91,19.69-15.11,23.42-17.6C563.85,296.85,574.52,288.46,573.38,279.84Z" style="fill:#263238"></path><path d="M533.63,319.49a.52.52,0,0,1-.38-.17c-6.72-7.75-16.62-9.86-21.92-10.42a.48.48,0,0,1-.41-.3.5.5,0,0,1,.06-.5,264.08,264.08,0,0,1,18.18-20.57c4.18-4.75,25.11-28.28,29-28.28h.13c3.81.61,14.44,11.93,15.57,20.53h0c1.1,8.35-8.4,16.59-16.55,22-3.77,2.51-14.8,10.94-23.4,17.58A.47.47,0,0,1,533.63,319.49ZM512.32,308c5.52.7,14.8,3,21.37,10.3,8.55-6.6,19.35-14.85,23.08-17.34,7.92-5.28,17.15-13.22,16.11-21.06h0c-1.11-8.5-11.62-19.17-14.73-19.67-2.09-.36-16.1,14.17-28.26,28C529.77,288.34,519.92,298.31,512.32,308Z" style="fill:#263238"></path><path d="M484,384.18l4.54,7.49a59.11,59.11,0,0,0,6.12-10,38.44,38.44,0,0,0-8.11-5.75Z" style="fill:#fff"></path><path d="M488.55,392.17h0a.49.49,0,0,1-.4-.24l-4.54-7.49a.51.51,0,0,1-.05-.4l2.55-8.25a.53.53,0,0,1,.3-.32.54.54,0,0,1,.43,0l.61.35a37.64,37.64,0,0,1,7.59,5.47.5.5,0,0,1,.11.58A60.53,60.53,0,0,1,488.94,392,.51.51,0,0,1,488.55,392.17Zm-4-8.05,4,6.66a60.06,60.06,0,0,0,5.47-9,36.56,36.56,0,0,0-7.14-5.09l-.07,0Z" style="fill:#263238"></path><path d="M352.34,259.63a.25.25,0,0,1-.19-.09l-12.8-15.61a.25.25,0,0,1,0-.35.24.24,0,0,1,.35,0l12.8,15.6a.24.24,0,0,1,0,.35A.23.23,0,0,1,352.34,259.63Z" style="fill:#263238"></path><path d="M356.46,261.47a.25.25,0,0,1-.19-.09l-17.74-21.63a.26.26,0,0,1,0-.36.25.25,0,0,1,.35,0l17.74,21.63a.24.24,0,0,1,0,.35A.25.25,0,0,1,356.46,261.47Z" style="fill:#263238"></path><path d="M360.5,263.21a.25.25,0,0,1-.2-.09l-21.32-26a.25.25,0,1,1,.38-.31l21.33,26a.24.24,0,0,1,0,.35A.22.22,0,0,1,360.5,263.21Z" style="fill:#263238"></path><path d="M363.25,263.38a.25.25,0,0,1-.19-.09l-23.63-28.81a.25.25,0,0,1,0-.35.26.26,0,0,1,.36,0L363.44,263a.25.25,0,0,1,0,.35A.27.27,0,0,1,363.25,263.38Z" style="fill:#263238"></path><path d="M366,263.56a.23.23,0,0,1-.19-.1L341,233.2a.25.25,0,0,1,0-.35.26.26,0,0,1,.36,0l24.82,30.26a.25.25,0,0,1,0,.35A.25.25,0,0,1,366,263.56Z" style="fill:#263238"></path><path d="M367.56,262.28a.25.25,0,0,1-.19-.09L341.75,231a.25.25,0,0,1,0-.35.24.24,0,0,1,.35,0l25.62,31.24a.24.24,0,0,1,0,.35A.25.25,0,0,1,367.56,262.28Z" style="fill:#263238"></path><path d="M369.52,261.48a.26.26,0,0,1-.2-.1l-26.2-31.95a.25.25,0,0,1,0-.35.26.26,0,0,1,.36,0l26.2,31.95a.24.24,0,0,1,0,.35A.22.22,0,0,1,369.52,261.48Z" style="fill:#263238"></path><path d="M371.17,260.31a.25.25,0,0,1-.19-.09l-26.49-32.3a.24.24,0,0,1,0-.35.25.25,0,0,1,.35,0l26.49,32.31a.24.24,0,0,1,0,.35A.3.3,0,0,1,371.17,260.31Z" style="fill:#263238"></path><path d="M372.63,258.92a.25.25,0,0,1-.19-.09l-26.25-32a.25.25,0,0,1,0-.35.25.25,0,0,1,.36,0l26.25,32a.25.25,0,0,1,0,.35A.23.23,0,0,1,372.63,258.92Z" style="fill:#263238"></path><path d="M373.8,257.16a.25.25,0,0,1-.19-.09L348,225.83a.25.25,0,0,1,.39-.32L374,256.75a.25.25,0,0,1,0,.35A.23.23,0,0,1,373.8,257.16Z" style="fill:#263238"></path><path d="M375.36,255.88a.25.25,0,0,1-.19-.09L349.93,225a.25.25,0,0,1,0-.35.24.24,0,0,1,.35,0l25.24,30.77a.25.25,0,0,1,0,.35A.25.25,0,0,1,375.36,255.88Z" style="fill:#263238"></path><path d="M376.92,254.6a.25.25,0,0,1-.19-.09l-24.82-30.26a.25.25,0,0,1,0-.35.25.25,0,0,1,.36,0l24.82,30.26a.25.25,0,0,1,0,.35A.25.25,0,0,1,376.92,254.6Z" style="fill:#263238"></path><path d="M376.1,250.41a.27.27,0,0,1-.2-.09l-21.79-26.58a.25.25,0,0,1,0-.35.24.24,0,0,1,.35,0L376.29,250a.25.25,0,0,1,0,.35A.27.27,0,0,1,376.1,250.41Z" style="fill:#263238"></path><path d="M376.46,247.68a.26.26,0,0,1-.19-.1l-19-23.19a.25.25,0,1,1,.38-.32l19,23.2a.25.25,0,0,1,0,.35A.25.25,0,0,1,376.46,247.68Z" style="fill:#263238"></path><path d="M375.46,243.28a.26.26,0,0,1-.19-.1l-15.36-18.72a.25.25,0,0,1,0-.35.24.24,0,0,1,.35,0l15.35,18.72a.25.25,0,0,1-.19.41Z" style="fill:#263238"></path><path d="M339.83,241.19a.25.25,0,0,1-.16-.45l18.72-15.35a.25.25,0,0,1,.35,0,.26.26,0,0,1,0,.36L340,241.13A.27.27,0,0,1,339.83,241.19Z" style="fill:#263238"></path><path d="M338.72,239.84a.25.25,0,0,1-.19-.09.26.26,0,0,1,0-.36L357.28,224a.25.25,0,0,1,.35,0,.25.25,0,0,1,0,.36l-18.72,15.35A.25.25,0,0,1,338.72,239.84Z" style="fill:#263238"></path><path d="M339.17,237.2a.23.23,0,0,1-.19-.09.24.24,0,0,1,0-.35l15.6-12.8a.26.26,0,0,1,.36,0,.25.25,0,0,1,0,.35l-15.6,12.8A.25.25,0,0,1,339.17,237.2Z" style="fill:#263238"></path><path d="M339.62,234.57a.25.25,0,0,1-.19-.09.25.25,0,0,1,0-.35l13.27-10.88a.25.25,0,0,1,.35,0,.24.24,0,0,1,0,.35l-13.26,10.88A.28.28,0,0,1,339.62,234.57Z" style="fill:#263238"></path><path d="M339.55,244a.27.27,0,0,1-.2-.09.25.25,0,0,1,0-.35l21.84-17.91a.25.25,0,1,1,.31.39L339.71,244A.25.25,0,0,1,339.55,244Z" style="fill:#263238"></path><path d="M340.83,245.59a.23.23,0,0,1-.19-.09.25.25,0,0,1,0-.36l21.84-17.91a.25.25,0,0,1,.32.39L341,245.53A.27.27,0,0,1,340.83,245.59Z" style="fill:#263238"></path><path d="M342.11,247.15a.28.28,0,0,1-.2-.1.25.25,0,0,1,0-.35L364.74,228a.25.25,0,0,1,.35,0,.24.24,0,0,1,0,.35l-22.78,18.69A.27.27,0,0,1,342.11,247.15Z" style="fill:#263238"></path><path d="M342.69,249.27a.25.25,0,0,1-.19-.09.24.24,0,0,1,0-.35l23.65-19.4a.25.25,0,0,1,.32.38l-23.66,19.41A.28.28,0,0,1,342.69,249.27Z" style="fill:#263238"></path><path d="M343.8,251a.25.25,0,0,1-.19-.09.24.24,0,0,1,0-.35l24-19.69a.25.25,0,1,1,.31.38l-24,19.69A.25.25,0,0,1,343.8,251Z" style="fill:#263238"></path><path d="M345,252.63a.25.25,0,0,1-.19-.09.24.24,0,0,1,0-.35l24.31-19.94a.25.25,0,0,1,.35,0,.24.24,0,0,1,0,.35l-24.31,19.94A.24.24,0,0,1,345,252.63Z" style="fill:#263238"></path><path d="M346.36,254.1a.23.23,0,0,1-.2-.1.25.25,0,0,1,0-.35L370.15,234a.25.25,0,1,1,.31.39L346.52,254A.27.27,0,0,1,346.36,254.1Z" style="fill:#263238"></path><path d="M347.81,255.52a.26.26,0,0,1-.19-.1.25.25,0,0,1,0-.35l23.66-19.4a.24.24,0,0,1,.35,0,.25.25,0,0,1,0,.35L348,255.46A.23.23,0,0,1,347.81,255.52Z" style="fill:#263238"></path><path d="M349.78,256.51a.25.25,0,0,1-.19-.09.26.26,0,0,1,0-.36l22.73-18.64a.25.25,0,1,1,.31.39l-22.73,18.64A.23.23,0,0,1,349.78,256.51Z" style="fill:#263238"></path><path d="M351.06,258.07a.26.26,0,0,1-.19-.1.25.25,0,0,1,0-.35l22.33-18.31a.25.25,0,0,1,.35,0,.24.24,0,0,1,0,.35L351.22,258A.25.25,0,0,1,351.06,258.07Z" style="fill:#263238"></path><path d="M352.34,259.63a.25.25,0,0,1-.19-.09.26.26,0,0,1,0-.36L374,241.27a.26.26,0,0,1,.36,0,.25.25,0,0,1,0,.35L352.5,259.57A.23.23,0,0,1,352.34,259.63Z" style="fill:#263238"></path><path d="M355.18,259.91a.25.25,0,0,1-.19-.09.26.26,0,0,1,0-.36l20.28-16.63a.25.25,0,0,1,.35,0,.24.24,0,0,1,0,.35l-20.28,16.63A.25.25,0,0,1,355.18,259.91Z" style="fill:#263238"></path><path d="M356.46,261.47a.25.25,0,0,1-.19-.09.26.26,0,0,1,0-.36L375,245.67a.25.25,0,0,1,.35,0,.25.25,0,0,1,0,.36l-18.72,15.35A.25.25,0,0,1,356.46,261.47Z" style="fill:#263238"></path><path d="M359.3,261.75a.25.25,0,0,1-.19-.09.25.25,0,0,1,0-.35l17.16-14.08a.26.26,0,0,1,.36,0,.25.25,0,0,1,0,.35l-17.16,14.07A.25.25,0,0,1,359.3,261.75Z" style="fill:#263238"></path><path d="M360.5,263.21a.25.25,0,0,1-.2-.09.26.26,0,0,1,0-.36L375.94,250a.24.24,0,0,1,.35,0,.25.25,0,0,1,0,.35l-15.61,12.8A.22.22,0,0,1,360.5,263.21Z" style="fill:#263238"></path><path d="M363.25,263.38a.25.25,0,0,1-.19-.09.24.24,0,0,1,0-.35l12.48-10.24a.24.24,0,0,1,.35,0,.25.25,0,0,1,0,.35l-12.48,10.23A.25.25,0,0,1,363.25,263.38Z" style="fill:#263238"></path><path d="M366,263.56a.23.23,0,0,1-.19-.1.25.25,0,0,1,0-.35l10.92-9a.26.26,0,0,1,.36,0,.25.25,0,0,1,0,.35l-10.92,9A.25.25,0,0,1,366,263.56Z" style="fill:#263238"></path><path d="M375.87,256.33l.21-.22s-1.49,5.38.72,9.21l-.55.45-.56.46c-3.32-2.92-8.86-2.53-8.86-2.53l.23-.15a15.61,15.61,0,0,1-3.08.18l-.24.16s8.35,0,12.95,4l.79-.65.78-.65c-3-5.29-1.38-13.51-1.38-13.51l-.23.24A15.5,15.5,0,0,1,375.87,256.33Z" style="fill:#263238"></path><path d="M376.69,268.42a.46.46,0,0,1-.33-.13c-4.4-3.82-12.54-3.9-12.62-3.9a.51.51,0,0,1-.27-.93l.25-.15a.51.51,0,0,1,.28-.08,15.23,15.23,0,0,0,3-.17.47.47,0,0,1,.41.12c1.5,0,5.49.17,8.3,2.4l.48-.39c-1.61-3.16-1-7.07-.72-8.58a.51.51,0,0,1-.05-.45,15.3,15.3,0,0,0,.76-2.89.43.43,0,0,1,.13-.26l.22-.24a.52.52,0,0,1,.6-.1.51.51,0,0,1,.26.54c0,.08-1.56,8.1,1.33,13.17a.5.5,0,0,1-.12.63L377,268.3A.47.47,0,0,1,376.69,268.42Zm-.79-1.74c.27.19.54.38.79.59l.94-.77c-.15-.29-.29-.59-.42-.89l-.09.09-1.11.91A.34.34,0,0,1,375.9,266.68Z" style="fill:#263238"></path><path d="M343.83,226.22c-7.23,5.93-7.17,18,.13,26.86s21.32,14,28.55,8.11,4.95-20.68-2.36-29.59S351.06,220.29,343.83,226.22Zm27.65,33.71c-6.71,5.51-19.72.75-26.5-7.52s-6.83-19.43-.12-24.94,17.65-3.27,24.43,5S378.2,254.43,371.48,259.93Z" style="fill:#fff"></path><path d="M364.65,264.24c-7.32,0-15.94-4.58-21.08-10.84-7.46-9.1-7.49-21.47-.06-27.57h0a15.88,15.88,0,0,1,13.55-3,23.86,23.86,0,0,1,13.48,8.43,31.73,31.73,0,0,1,6.74,16.17c.65,6.21-.93,11.23-4.45,14.12A12.66,12.66,0,0,1,364.65,264.24Zm-11.38-40.78a14.16,14.16,0,0,0-9.12,3.14h0c-7,5.75-6.92,17.49.2,26.17,7,8.53,20.69,13.9,27.84,8,3.26-2.67,4.71-7.37,4.1-13.24a30.66,30.66,0,0,0-6.53-15.64,22.83,22.83,0,0,0-12.9-8.08A17.89,17.89,0,0,0,353.27,223.46Zm-9.44,2.76h0Zm20.34,36.59a20.4,20.4,0,0,1-6.06-1,29.5,29.5,0,0,1-13.52-9.08c-6.94-8.47-7-20,0-25.64s18.19-3.4,25.14,5.07a29.37,29.37,0,0,1,6.26,15c.61,5.78-.86,10.44-4.14,13.13A11.8,11.8,0,0,1,364.17,262.81ZM353.63,225a13.14,13.14,0,0,0-8.45,2.9c-6.49,5.32-6.41,16.19.19,24.23a28.47,28.47,0,0,0,13,8.77c5.21,1.62,9.74,1.16,12.76-1.31h0c3-2.47,4.35-6.83,3.78-12.26a28.47,28.47,0,0,0-6.05-14.5C364.74,227.71,359,225,353.63,225Z" style="fill:#263238"></path><path d="M378.27,266.62l-.79.65-.8.65a28.23,28.23,0,0,0,1.93,4.37l16,19.56,1.79-1.46,1.78-1.47-16-19.56A28.82,28.82,0,0,0,378.27,266.62Z" style="fill:#263238"></path><path d="M394.65,292.35a.51.51,0,0,1-.39-.18l-16-19.56a27.45,27.45,0,0,1-2-4.52.5.5,0,0,1,.15-.55l1.6-1.31a.5.5,0,0,1,.57,0,27.36,27.36,0,0,1,4,2.86l16,19.55a.56.56,0,0,1,.11.37.52.52,0,0,1-.18.34L395,292.24A.56.56,0,0,1,394.65,292.35Zm-17.38-24.27A24.33,24.33,0,0,0,379,272l15.73,19.17,2.8-2.3-15.73-19.17a23.31,23.31,0,0,0-3.48-2.45Z" style="fill:#263238"></path><path d="M394.57,292.42h-.05a.54.54,0,0,1-.34-.18l-.75-.92a.46.46,0,0,1-.11-.37.48.48,0,0,1,.18-.34l3.73-3.06a.51.51,0,0,1,.71.07l.75.92a.44.44,0,0,1,.11.36.5.5,0,0,1-.18.34l-3.74,3.07A.51.51,0,0,1,394.57,292.42Zm-.05-1.35.12.15,3-2.44-.12-.14Z" style="fill:#263238"></path><path d="M474.41,234.54s-14.21,9.24-14.65,10.12S446.13,270,446.13,270,413.46,280.56,411,281.29s-7.62,1.9-7.62,1.9l1.61,7.48s44-4.69,45.42-5.13,1.62-.29,2.64-1.47,21.25-23.44,21.25-23.44,15.53,9.38,28.57,14.65,19.34,7.18,19.34,7.18a16.58,16.58,0,0,1,3.08,2.93c.73,1.17,3.81,2.35,4.25,2.49s12-3.66,20.08-14.36,8.64-13.77,8.64-13.77l-11.72-6.6c-2.34-1.31-16.85-16.85-22-24.76s-5.28-8.65-7.91-8.5-22.72,2.93-27.41,4S474.41,234.54,474.41,234.54Z" style="fill:#fff"></path><path d="M405,291.17a.5.5,0,0,1-.49-.4l-1.61-7.47a.49.49,0,0,1,.37-.59c.06,0,5.15-1.18,7.59-1.9s32.27-10.35,35-11.22c1.19-2.22,13.11-24.33,13.52-25.16s10.46-7.47,14.79-10.28c.76-.72,10.33-9.77,15-10.79s24.77-3.82,27.48-4,3.13.6,6.89,6.44l1.47,2.29c5.09,7.86,19.6,23.36,21.81,24.6l11.72,6.59a.5.5,0,0,1,.24.53c0,.13-.7,3.32-8.73,14s-19.92,14.79-20.64,14.54c0,0-3.61-1.26-4.51-2.7a15.21,15.21,0,0,0-2.89-2.75c-.8-.25-7.19-2.27-19.29-7.16-11.85-4.8-25.9-13.06-28.3-14.48-2.42,2.67-20,22.05-21,23.13a3.48,3.48,0,0,1-2.23,1.43l-.64.19c-1.47.44-41,4.66-45.52,5.14Zm-1-7.6,1.41,6.55c12.51-1.33,43.67-4.71,44.89-5.06l.67-.19a2.55,2.55,0,0,0,1.73-1.13c1-1.16,20.43-22.54,21.26-23.45a.5.5,0,0,1,.63-.09c.15.09,15.65,9.42,28.5,14.62s19.24,7.14,19.3,7.16l.15.08a17.08,17.08,0,0,1,3.21,3.07c.55.88,3,1.94,3.9,2.25,1.13-.18,12-4.07,19.6-14.16,6.42-8.52,8.06-12.18,8.44-13.23l-11.37-6.4c-2.39-1.35-16.94-16.88-22.15-24.93l-1.48-2.28c-3.77-5.88-4-6.1-6-6-2.61.15-22.72,2.94-27.32,4s-14.46,10.47-14.56,10.57l-.07.05c-5.31,3.45-13.94,9.2-14.5,9.95s-13.08,24.33-13.62,25.33a.47.47,0,0,1-.28.24c-.33.11-32.71,10.56-35.18,11.29C409.08,282.37,405.28,283.26,403.94,283.57Zm70.48-49Z" style="fill:#263238"></path><path d="M524.53,228.39c-5.13-7.91-5.28-8.65-7.91-8.5s-22.72,2.93-27.41,4-14.8,10.69-14.8,10.69-14.21,9.24-14.65,10.12c-.24.48-4.3,8-7.92,14.76a32.15,32.15,0,0,0,16.91,7.29l5.52-6.08s15.53,9.38,28.57,14.65,19.35,7.18,19.35,7.18a16.63,16.63,0,0,1,3.07,2.93c.73,1.17,3.81,2.35,4.25,2.49s12-3.66,20.08-14.36,8.64-13.77,8.64-13.77l-11.72-6.6C544.17,251.84,529.66,236.3,524.53,228.39Z" style="fill:#0A5F5F"></path><path d="M529.44,288.37h-.09s-3.61-1.26-4.51-2.7a14.92,14.92,0,0,0-2.89-2.75c-.8-.25-7.19-2.27-19.29-7.16-11.85-4.8-25.9-13.06-28.3-14.48l-5.24,5.78a.52.52,0,0,1-.44.16,32.48,32.48,0,0,1-17.17-7.41.5.5,0,0,1-.11-.62c4.84-9,7.72-14.37,7.91-14.75.46-.9,10.53-7.51,14.83-10.3.35-.35,10.2-9.73,15-10.77s24.77-3.82,27.48-4,3.13.6,6.89,6.44l1.47,2.29c5.09,7.86,19.6,23.36,21.81,24.6l11.72,6.59a.5.5,0,0,1,.24.53c0,.13-.7,3.32-8.73,14C542.09,284.31,530.71,288.37,529.44,288.37Zm-55.17-28.24a.48.48,0,0,1,.26.07c.15.09,15.65,9.42,28.5,14.62s19.24,7.14,19.3,7.16l.15.08a16.74,16.74,0,0,1,3.21,3.07c.55.88,3,1.94,3.9,2.25,1.13-.18,12-4.08,19.6-14.16,6.42-8.52,8.06-12.18,8.44-13.23l-11.37-6.4c-2.39-1.35-16.94-16.88-22.15-24.93h0l-1.48-2.28c-3.77-5.88-4-6.1-6-6-2.61.15-22.72,2.94-27.32,4s-14.46,10.47-14.56,10.57c-5.38,3.5-14,9.25-14.57,10-.24.49-4.85,9.06-7.72,14.39a31.92,31.92,0,0,0,16.08,6.88l5.35-5.89A.49.49,0,0,1,474.27,260.13Z" style="fill:#263238"></path><path d="M521.67,251.75a.5.5,0,0,1-.49-.46.49.49,0,0,1,.46-.53c.94-.08,1.89-.18,2.82-.3a.51.51,0,0,1,.57.43.5.5,0,0,1-.44.56q-1.43.2-2.88.3Z" style="fill:#263238"></path><path d="M517.43,251.92c-12.6,0-19.69-4.45-20-4.65a.5.5,0,1,1,.54-.84c.08,0,7.37,4.65,20.12,4.49a.47.47,0,0,1,.5.49.5.5,0,0,1-.49.51Z" style="fill:#263238"></path><path d="M505,254l-.13,0a49.21,49.21,0,0,1-14.08-6.67.5.5,0,0,1-.12-.7.51.51,0,0,1,.7-.11A48.68,48.68,0,0,0,505.17,253a.49.49,0,0,1,.35.61A.5.5,0,0,1,505,254Z" style="fill:#263238"></path><path d="M463,254.84a.51.51,0,0,1-.31-.11,15.93,15.93,0,0,1-2.34-2.27.51.51,0,0,1,.08-.71.5.5,0,0,1,.7.08,14.89,14.89,0,0,0,2.19,2.12.5.5,0,0,1,.07.7A.48.48,0,0,1,463,254.84Z" style="fill:#263238"></path><path d="M474.27,261.13a.43.43,0,0,1-.19,0,58.27,58.27,0,0,1-9.36-4.91.5.5,0,0,1,.55-.83,56.86,56.86,0,0,0,9.19,4.81.5.5,0,0,1,.27.65A.49.49,0,0,1,474.27,261.13Z" style="fill:#263238"></path><polygon points="403.35 283.19 404.96 290.67 409.62 290.25 407.83 281.9 403.35 283.19" style="fill:#fff"></polygon><path d="M405,291.17a.5.5,0,0,1-.49-.4l-1.61-7.47a.5.5,0,0,1,.35-.59l4.48-1.29a.56.56,0,0,1,.4.06.5.5,0,0,1,.23.32l1.79,8.35a.5.5,0,0,1-.45.6l-4.66.42Zm-1-7.62,1.42,6.58,3.66-.33-1.56-7.27Z" style="fill:#263238"></path><path d="M391.78,280.33s-5.93,1.44-5.93,2.4,4.81,10.25,6.41,10.41,12.7-2.47,12.7-2.47l-1.61-7.48Z" style="fill:#fff"></path><path d="M392.4,293.64h-.19c-1.95-.19-6.86-9.79-6.86-10.9,0-.33,0-1.35,6.31-2.89h.24l11.57,2.87a.48.48,0,0,1,.36.38l1.62,7.47a.5.5,0,0,1-.38.59C404,291.42,394.51,293.64,392.4,293.64Zm-6-10.85c.24,1.38,4.77,9.65,5.95,9.85s7.62-1.31,12.06-2.35l-1.45-6.69-11.14-2.76C389.42,281.43,386.77,282.32,386.36,282.79Z" style="fill:#263238"></path><path d="M403.35,283.19s-9.43-4.27-10.82-4.66-2.39,2.18-2.39,3.18-.19,5.76,1,6.16a8,8,0,0,0,3.18,0l-.2-3.18a4.83,4.83,0,0,0,4.77,3" style="fill:#fff"></path><path d="M392.5,288.54a5,5,0,0,1-1.52-.2c-1.18-.39-1.39-2.78-1.34-6.25v-.38a5.07,5.07,0,0,1,1.58-3.36,1.61,1.61,0,0,1,1.45-.3c1.41.4,10.5,4.51,10.88,4.69a.49.49,0,0,1,.25.66.5.5,0,0,1-.66.25c-3.25-1.47-9.68-4.34-10.75-4.64a.58.58,0,0,0-.57.14,4.15,4.15,0,0,0-1.18,2.56v.4c-.07,4.8.53,5.24.66,5.28a6.52,6.52,0,0,0,2.49.06l-.17-2.73a.5.5,0,0,1,1-.19,4.35,4.35,0,0,0,4.3,2.64.5.5,0,0,1,.5.5.51.51,0,0,1-.5.5,5.55,5.55,0,0,1-4.16-1.66l.09,1.32a.52.52,0,0,1-.4.53A11.47,11.47,0,0,1,392.5,288.54Z" style="fill:#263238"></path><path d="M491.27,388.49s-3.4-2.49-4.09-3.63a26.65,26.65,0,0,1-1.58-4.53c-.23-.68-6.35,1.81-6.35,1.81s-7.49.46-11.8-1.13-7.49-2-7.49-.68,13.61,14.51,18.38,16.78,5.67,4.09,7,2.95,4.76-7.71,4.76-7.71,3.86-2.27,3.63-3.18S491.27,388.49,491.27,388.49Z" style="fill:#fff"></path><path d="M484.54,400.91a5.29,5.29,0,0,1-2.46-1.11,33.24,33.24,0,0,0-4-2.24c-4.36-2.07-18.66-15.28-18.66-17.23a1.15,1.15,0,0,1,.51-1c1.27-.89,4.87.15,7.65,1.18,3.93,1.44,10.7,1.15,11.52,1.11,2.59-1.06,5.8-2.22,6.59-1.86a.64.64,0,0,1,.34.38l.23.76a20.1,20.1,0,0,0,1.31,3.68,22.11,22.11,0,0,0,3.8,3.37c.71,0,2.55-.06,2.84,1.07s-1.86,2.54-3.74,3.66c-.57,1.1-3.49,6.62-4.82,7.74A1.79,1.79,0,0,1,484.54,400.91ZM461.39,380a1.61,1.61,0,0,0-.85.16.16.16,0,0,0-.08.15c.36,1.33,13.35,14.07,18.09,16.33a36.76,36.76,0,0,1,4.07,2.29c1.59,1,1.91,1.16,2.43.73,1.05-.88,3.71-5.76,4.64-7.56a.52.52,0,0,1,.19-.2c1.73-1,3.32-2.27,3.39-2.68,0-.18-1.06-.34-1.95-.25a.53.53,0,0,1-.35-.09c-.35-.27-3.5-2.59-4.21-3.78a19.91,19.91,0,0,1-1.42-3.91c-.06-.19-.11-.36-.15-.5a31.36,31.36,0,0,0-5.76,1.9l-.15,0c-.31,0-7.65.44-12-1.16A19,19,0,0,0,461.39,380Z" style="fill:#263238"></path><path d="M476.76,235.28s1.46,3.07,6,6.59,6.15,4,6.15,4,3.37-8.65,3.23-13.78a25.44,25.44,0,0,0-1.18-7.76l-5.42-5.42S479.1,233.37,476.76,235.28Z" style="fill:#fff"></path><path d="M488.92,246.33l-.13,0c-.07,0-1.76-.51-6.33-4s-6.09-6.65-6.15-6.78a.5.5,0,0,1,.13-.6c1.85-1.5,6.87-12.22,8.65-16.23a.52.52,0,0,1,.37-.29.56.56,0,0,1,.45.14l5.42,5.42a.54.54,0,0,1,.11.18,25.84,25.84,0,0,1,1.21,7.93c.14,5.17-3.12,13.61-3.26,14A.51.51,0,0,1,488.92,246.33Zm-11.54-11a22.6,22.6,0,0,0,5.69,6.11,32.77,32.77,0,0,0,5.56,3.69c.7-1.87,3.14-8.81,3-13.1a26.42,26.42,0,0,0-1.11-7.51l-4.83-4.83C484.46,222.51,479.67,232.93,477.38,235.37Z" style="fill:#263238"></path><polygon points="483.65 223.26 482.77 241.87 477.49 237.33 476.76 235.28 483.65 223.26" style="fill:#263238"></polygon><path d="M482.77,242.37a.5.5,0,0,1-.33-.12l-5.27-4.54a.51.51,0,0,1-.15-.21l-.73-2.05a.48.48,0,0,1,0-.42l6.88-12a.52.52,0,0,1,.58-.23.51.51,0,0,1,.36.51l-.88,18.61a.49.49,0,0,1-.31.43A.43.43,0,0,1,482.77,242.37ZM477.92,237l4.4,3.78.73-15.51-5.74,10Z" style="fill:#263238"></path><path d="M461.23,197.47s-1-2.34-2.49-1.17-4.25,4.69-3.67,5.86-2.05-1.17-2.2.88a4,4,0,0,0,1.76,4,18.17,18.17,0,0,0,3.52,1.75s2.05,9.24,2.78,10.85,3.67,8.5,7.77,12.6,6.15,5.72,7.47,5.42l1.32-.29s8.5-9.23,9.38-11.14,1.47-3.37,1-5.71-.74-3.37-.74-3.37,1.91-2.49,1.62-4.69-1-3.08-2.2-3.37-2.35-10.55-3.52-13.19-1.61-3.52-10.11-2.64S461.23,197.47,461.23,197.47Z" style="fill:#fff"></path><path d="M475.84,238.16c-1.44,0-3.35-1.46-7.49-5.61-3.91-3.9-6.77-10.28-7.71-12.38l-.16-.36c-.68-1.51-2.41-9.14-2.76-10.69a17.15,17.15,0,0,1-3.39-1.72,4.47,4.47,0,0,1-1.95-4.4,1.39,1.39,0,0,1,.56-1.15,1.88,1.88,0,0,1,1.59,0c0-1.87,2.74-5,3.89-5.92a1.7,1.7,0,0,1,1.51-.39,2.56,2.56,0,0,1,1.43,1.17c1.21-1,4.7-3.26,11.54-4,8.52-.88,9.29-.05,10.62,2.94a40.05,40.05,0,0,1,1.56,6.39c.48,2.44,1.2,6.13,1.69,6.55,1.41.33,2.2,1.5,2.5,3.75.27,2-1.1,4.19-1.56,4.86.11.42.35,1.44.68,3.18.46,2.45-.12,4-1.07,6s-9.11,10.89-9.46,11.27a.61.61,0,0,1-.26.15l-1.32.29A2.12,2.12,0,0,1,475.84,238.16Zm-22.21-35.5a.32.32,0,0,0-.14,0,.62.62,0,0,0-.12.39,3.53,3.53,0,0,0,1.56,3.52,18,18,0,0,0,3.4,1.69.51.51,0,0,1,.31.36c.7,3.17,2.19,9.5,2.75,10.74l.17.37c.92,2.06,3.72,8.31,7.49,12.09,3.46,3.45,5.82,5.55,7,5.28l1.17-.25c2.43-2.64,8.5-9.42,9.19-10.9.88-1.92,1.39-3.24,1-5.41s-.71-3.32-.72-3.33a.5.5,0,0,1,.09-.44s1.77-2.35,1.51-4.32c-.3-2.26-1.06-2.75-1.82-2.95s-1.36-2.17-2.37-7.28a39.65,39.65,0,0,0-1.49-6.19c-1.09-2.45-1.41-3.19-9.6-2.34s-11.38,4.07-11.41,4.1a.51.51,0,0,1-.45.14.5.5,0,0,1-.37-.29c-.12-.27-.57-1.06-1.08-1.18a.69.69,0,0,0-.64.2c-1.59,1.27-3.9,4.52-3.53,5.25a.76.76,0,0,1,0,.87c-.28.33-.7.18-1.09,0A3.38,3.38,0,0,0,453.63,202.66Z" style="fill:#263238"></path><path d="M464.74,210.51c1.47-.58,5.13-3.07,7.92-4.83s4.69-1,4.39.29-1.17,2.49,0,3.81,3.23.73,3.23.73.73,2.35,1.32,2.49.87.44,1.31-1,3.67-2.93,3.67-2.93c-1.18-.3-2.35-10.55-3.52-13.19s-1.61-3.52-10.11-2.64-11.72,4.25-11.72,4.25-1-2.34-2.49-1.17-4.25,4.69-3.67,5.86-2.05-1.17-2.2.88a4,4,0,0,0,1.76,4,18.17,18.17,0,0,0,3.52,1.75S463.28,211.1,464.74,210.51Z" style="fill:#263238"></path><path d="M482.14,213.62a2,2,0,0,1-.5-.08l-.17,0c-.62-.16-1.16-1.31-1.53-2.4a3.62,3.62,0,0,1-3.26-1c-1.09-1.23-.71-2.38-.37-3.4a6.36,6.36,0,0,0,.25-.85.45.45,0,0,0-.18-.53c-.51-.36-1.81-.27-3.46.77l-2.23,1.43a51.18,51.18,0,0,1-5.76,3.45c-1.58.63-6.1-1.36-7-1.77a18.38,18.38,0,0,1-3.61-1.81,4.47,4.47,0,0,1-1.95-4.4,1.39,1.39,0,0,1,.56-1.15,1.88,1.88,0,0,1,1.59,0c0-1.87,2.74-5,3.89-5.92a1.7,1.7,0,0,1,1.51-.39,2.56,2.56,0,0,1,1.43,1.17c1.21-1,4.7-3.26,11.54-4,8.52-.88,9.29-.05,10.62,2.94a40.05,40.05,0,0,1,1.56,6.39c.48,2.44,1.2,6.13,1.69,6.55a.44.44,0,0,1,.34.42.49.49,0,0,1-.33.48c-1.16.53-3.11,1.71-3.39,2.62C483.08,213.18,482.73,213.62,482.14,213.62ZM480.28,210a.49.49,0,0,1,.47.35,6.58,6.58,0,0,0,1,2.18l.17,0,.21,0a8.42,8.42,0,0,0,.3-.8c.38-1.26,2.32-2.42,3.34-3-.52-.94-1-3-1.69-6.63a39.65,39.65,0,0,0-1.49-6.19c-1.09-2.45-1.41-3.19-9.6-2.34s-11.38,4.07-11.41,4.1a.51.51,0,0,1-.45.14.5.5,0,0,1-.37-.29c-.12-.27-.57-1.06-1.08-1.18a.69.69,0,0,0-.64.2c-1.59,1.27-3.9,4.52-3.53,5.25a.76.76,0,0,1,0,.87c-.28.33-.7.18-1.09,0s-.77-.27-.93-.16a.62.62,0,0,0-.12.39,3.53,3.53,0,0,0,1.56,3.52,18,18,0,0,0,3.4,1.69c2.08,1,5.35,2.11,6.23,1.76h0a50,50,0,0,0,5.59-3.36l2.24-1.44c2.18-1.37,3.79-1.28,4.56-.74a1.46,1.46,0,0,1,.59,1.57c-.07.32-.18.64-.28.95-.35,1-.51,1.66.17,2.42a2.91,2.91,0,0,0,2.71.58Z" style="fill:#263238"></path><path d="M473.78,218.18a1.37,1.37,0,0,1-.6,1.79c-.58.18-1.25-.34-1.5-1.15a1.37,1.37,0,0,1,.6-1.79C472.86,216.85,473.53,217.36,473.78,218.18Z" style="fill:#263238"></path><path d="M465.53,220.22c.24.77.06,1.51-.4,1.65s-1-.37-1.27-1.14-.05-1.51.41-1.65S465.3,219.45,465.53,220.22Z" style="fill:#263238"></path><path d="M469.58,217.31a.49.49,0,0,1-.4-.8,7.77,7.77,0,0,1,5.67-2.83.5.5,0,0,1,.5.5.5.5,0,0,1-.5.5,6.88,6.88,0,0,0-4.88,2.44A.48.48,0,0,1,469.58,217.31Z" style="fill:#263238"></path><path d="M461.81,218.19a.5.5,0,0,1-.19-1c2.31-1,3.54,0,3.6.08a.5.5,0,0,1-.65.77s-.87-.65-2.56.07A.45.45,0,0,1,461.81,218.19Z" style="fill:#263238"></path><path d="M468.49,227.89a1.22,1.22,0,0,1-.41-.06c-.28-.11-1-.41-1.48-6.92l-.83-1.51a.5.5,0,0,1,.88-.48l.88,1.61a.65.65,0,0,1,.06.21c.18,2.57.57,5.58.92,6.17a12.83,12.83,0,0,0,3.35-1.17.5.5,0,0,1,.43.9A12.05,12.05,0,0,1,468.49,227.89Zm.05-.93Z" style="fill:#263238"></path><path d="M471.78,230.94a.49.49,0,0,1-.44-.26.51.51,0,0,1,.2-.68l1.91-1a.49.49,0,0,1,.67.2.51.51,0,0,1-.2.68l-1.91,1A.46.46,0,0,1,471.78,230.94Z" style="fill:#263238"></path><path d="M506.51,222.68s8.79-2.35,11.57-2.06S559,234.54,559.7,235.86s1.61,3.23,1.61,3.23l8.79,42.79-5.86.87s-4.4-10.25-6-13.48-6.3-11.13-7.76-15.09-2.93-7.18-2.93-7.18l-32.39-4.1" style="fill:#0A5F5F"></path><path d="M564.24,283.25a.49.49,0,0,1-.46-.3c0-.1-4.41-10.28-6-13.45-.52-1-1.35-2.53-2.3-4.27A103,103,0,0,1,550,254.35c-1.21-3.26-2.43-6-2.81-6.89l-32.1-4.07a.49.49,0,0,1-.43-.56.51.51,0,0,1,.55-.43l32.39,4.1a.53.53,0,0,1,.39.29s1.49,3.29,2.94,7.22a105.84,105.84,0,0,0,5.44,10.74c1,1.74,1.79,3.25,2.31,4.3,1.43,2.86,5.08,11.31,5.87,13.15l5-.74-8.68-42.21c-.14-.32-.92-2-1.57-3.14-1.35-1.29-38-14.65-41.23-15-2.65-.27-11.31,2-11.4,2a.5.5,0,1,1-.25-1c.36-.09,8.92-2.36,11.75-2.06,2.57.27,41,13.77,42,15.49.74,1.32,1.6,3.18,1.63,3.26a.36.36,0,0,1,0,.11l8.79,42.78a.49.49,0,0,1-.08.39.52.52,0,0,1-.33.21l-5.87.88Z" style="fill:#263238"></path><path d="M561.31,239.09s-.88-1.91-1.61-3.23c-.29-.52-6.52-3-14.08-5.81.28,4.71,0,11.07-2.61,16.38l4.53.57s1.46,3.22,2.93,7.18,6.15,11.87,7.76,15.09,6,13.48,6,13.48l5.86-.87Z" style="fill:#fff"></path><path d="M564.24,283.25a.49.49,0,0,1-.46-.3c0-.1-4.41-10.28-6-13.45-.52-1-1.35-2.53-2.3-4.27A103,103,0,0,1,550,254.35c-1.21-3.26-2.43-6-2.81-6.89l-4.24-.54a.49.49,0,0,1-.38-.26.48.48,0,0,1,0-.45c2.59-5.3,2.82-11.7,2.56-16.13a.48.48,0,0,1,.2-.43.49.49,0,0,1,.47-.07c13.84,5.15,14.19,5.77,14.33,6,.74,1.32,1.6,3.18,1.63,3.26a.36.36,0,0,1,0,.11l8.79,42.78a.49.49,0,0,1-.08.39.52.52,0,0,1-.33.21l-5.87.88ZM543.76,246l3.84.48a.53.53,0,0,1,.39.29s1.49,3.29,2.94,7.22a105.84,105.84,0,0,0,5.44,10.74c1,1.74,1.79,3.25,2.31,4.3,1.43,2.86,5.08,11.31,5.87,13.15l5-.74-8.68-42.21c-.14-.32-.92-2-1.57-3.14-.35-.33-4-1.94-13.1-5.33C546.35,235.11,546,241,543.76,246Z" style="fill:#263238"></path><polygon points="562.19 278.07 568.93 276.89 570.1 281.88 564.24 282.75 562.19 278.07" style="fill:#fff"></polygon><path d="M564.24,283.25a.5.5,0,0,1-.46-.29l-2-4.69a.52.52,0,0,1,0-.44.49.49,0,0,1,.35-.26l6.74-1.17a.5.5,0,0,1,.58.38l1.17,5a.56.56,0,0,1-.07.4.54.54,0,0,1-.34.21l-5.87.88Zm-1.34-4.8,1.65,3.75,4.94-.74-.94-4Z" style="fill:#263238"></path><path d="M564.24,282.75s-3.66,3.67-3.81,4.69a36.81,36.81,0,0,1-2.2,6.89c-.73,1.32-1.32,2.35.74,1.91s3.07-3.37,3.07-3.37.44-2.2,1.61-2.2,4.69,8.94,5.13,9.67,1.61,4.39,2.64,4,.15-4.69.15-4.69.58-9.09.14-11.43-1.61-6.3-1.61-6.3Z" style="fill:#fff"></path><path d="M571.25,304.83a1,1,0,0,1-.38-.07c-.79-.32-1.42-1.67-2.11-3.26a8.8,8.8,0,0,0-.41-.9c-.11-.2-.34-.73-.81-1.8-.79-1.8-3.17-7.27-4-7.65-.49,0-.93,1.25-1.05,1.81-.06.2-1.16,3.27-3.46,3.76-.7.15-1.47.24-1.85-.27s0-1.34.56-2.33a37.17,37.17,0,0,0,2.16-6.75c.15-1.1,3.06-4.08,3.95-5a.53.53,0,0,1,.28-.14l5.86-.88a.49.49,0,0,1,.55.35c0,.17,1.19,4,1.62,6.35s-.07,10.59-.13,11.49c.36,1.75.75,4.67-.45,5.18A.83.83,0,0,1,571.25,304.83Zm-7.6-14.66c.94,0,2.06,1.92,4.8,8.23.35.79.67,1.53.76,1.68a8.92,8.92,0,0,1,.47,1c.28.66,1.13,2.64,1.57,2.73.29-.25.22-2.21-.17-4.12a.33.33,0,0,1,0-.14c0-.09.58-9.05.15-11.3-.34-1.85-1.17-4.76-1.48-5.84l-5.26.79c-1.68,1.69-3.48,3.78-3.55,4.29a37.28,37.28,0,0,1-2.26,7.06,7.33,7.33,0,0,0-.61,1.26,2.58,2.58,0,0,0,.8-.08c1.75-.38,2.7-3,2.71-3.05C561.6,292.5,562.12,290.17,563.65,290.17Zm-5.6,5.75h0Z" style="fill:#263238"></path></g><g id="freepik--Ball--inject-189"><path d="M346.75,269.45a7.41,7.41,0,0,1-7.41,7.4,7.26,7.26,0,0,1-3.76-1,7.4,7.4,0,0,1,0-12.75,7.26,7.26,0,0,1,3.76-1,7.41,7.41,0,0,1,7.41,7.41Z" style="fill:#0A5F5F"></path><path d="M339.34,277.35a7.82,7.82,0,0,1-4-1.11,7.86,7.86,0,1,1,4,1.11Zm0-14.81a6.9,6.9,0,0,0-3.51,12.84,6.91,6.91,0,0,0,10.42-5.93,7,7,0,0,0-2.2-5.06A6.85,6.85,0,0,0,339.34,262.54Z" style="fill:#263238"></path><path d="M346.75,269.45a7.35,7.35,0,0,1-2.36,5.41,7.37,7.37,0,0,1,0-10.83A7.39,7.39,0,0,1,346.75,269.45Z" style="fill:#0A5F5F"></path><path d="M344.39,275.36a.55.55,0,0,1-.34-.13,7.88,7.88,0,0,1,0-11.57.5.5,0,0,1,.68,0,7.89,7.89,0,0,1,0,11.56A.51.51,0,0,1,344.39,275.36Zm0-10.63a6.91,6.91,0,0,0,0,9.43,6.88,6.88,0,0,0,0-9.43Z" style="fill:#263238"></path><path d="M339.23,269.45a7.38,7.38,0,0,1-3.65,6.37,7.4,7.4,0,0,1,0-12.75A7.39,7.39,0,0,1,339.23,269.45Z" style="fill:#0A5F5F"></path><path d="M335.58,276.32a.59.59,0,0,1-.26-.07,7.92,7.92,0,0,1,0-13.62.52.52,0,0,1,.51,0,7.9,7.9,0,0,1,0,13.62A.59.59,0,0,1,335.58,276.32Zm0-12.67a6.91,6.91,0,0,0,0,11.58,6.9,6.9,0,0,0,0-11.58Z" style="fill:#263238"></path></g><g id="freepik--Net--inject-189"><rect x="54.62" y="317.21" width="634.44" height="9.37" style="fill:#fff"></rect><path d="M689.06,327.08H54.62a.5.5,0,0,1-.5-.5v-9.37a.5.5,0,0,1,.5-.5H689.06a.51.51,0,0,1,.5.5v9.37A.5.5,0,0,1,689.06,327.08Zm-633.94-1H688.56v-8.37H55.12Z" style="fill:#263238"></path><rect x="38.05" y="315.51" width="8.7" height="130.45" style="fill:#0A5F5F"></rect><path d="M46.75,446.46h-8.7a.51.51,0,0,1-.5-.5V315.51a.5.5,0,0,1,.5-.5h8.7a.5.5,0,0,1,.5.5V446A.5.5,0,0,1,46.75,446.46Zm-8.2-1h7.7V316h-7.7Z" style="fill:#263238"></path><rect x="700.86" y="315.51" width="8.7" height="130.45" style="fill:#0A5F5F"></rect><path d="M709.55,446.46h-8.69a.5.5,0,0,1-.5-.5V315.51a.5.5,0,0,1,.5-.5h8.69a.5.5,0,0,1,.5.5V446A.5.5,0,0,1,709.55,446.46Zm-8.19-1h7.69V316h-7.69Z" style="fill:#263238"></path><path d="M54.62,317.71H38a.5.5,0,0,1-.5-.5.5.5,0,0,1,.5-.5h16.6a.51.51,0,0,1,.5.5A.5.5,0,0,1,54.62,317.71Z" style="fill:#263238"></path><path d="M709.14,317.71H689.06a.5.5,0,0,1-.5-.5.5.5,0,0,1,.5-.5h20.08a.5.5,0,0,1,.5.5A.5.5,0,0,1,709.14,317.71Z" style="fill:#263238"></path><path d="M54.62,430.42H38a.5.5,0,1,1,0-1h16.6a.5.5,0,1,1,0,1Z" style="fill:#263238"></path><path d="M709.14,430.42H689.06a.5.5,0,0,1,0-1h20.08a.5.5,0,0,1,0,1Z" style="fill:#263238"></path><path d="M54.62,430.85a.5.5,0,0,1-.5-.5V326.58a.5.5,0,0,1,.5-.5.5.5,0,0,1,.5.5V430.35A.5.5,0,0,1,54.62,430.85Z" style="fill:#263238"></path><path d="M64.92,430.85a.5.5,0,0,1-.5-.5V326.58a.5.5,0,0,1,.5-.5.5.5,0,0,1,.5.5V430.35A.5.5,0,0,1,64.92,430.85Z" style="fill:#263238"></path><path d="M75.23,430.85a.5.5,0,0,1-.5-.5V326.58a.5.5,0,0,1,.5-.5.5.5,0,0,1,.5.5V430.35A.5.5,0,0,1,75.23,430.85Z" style="fill:#263238"></path><path d="M85.54,430.85a.5.5,0,0,1-.5-.5V326.58a.5.5,0,0,1,1,0V430.35A.5.5,0,0,1,85.54,430.85Z" style="fill:#263238"></path><path d="M95.85,430.85a.5.5,0,0,1-.5-.5V326.58a.5.5,0,0,1,1,0V430.35A.5.5,0,0,1,95.85,430.85Z" style="fill:#263238"></path><path d="M106.16,430.85a.5.5,0,0,1-.5-.5V326.58a.5.5,0,0,1,.5-.5.5.5,0,0,1,.5.5V430.35A.5.5,0,0,1,106.16,430.85Z" style="fill:#263238"></path><path d="M116.47,430.85a.5.5,0,0,1-.5-.5V326.58a.5.5,0,0,1,.5-.5.5.5,0,0,1,.5.5V430.35A.5.5,0,0,1,116.47,430.85Z" style="fill:#263238"></path><path d="M126.78,430.85a.5.5,0,0,1-.5-.5V326.58a.5.5,0,0,1,.5-.5.5.5,0,0,1,.5.5V430.35A.5.5,0,0,1,126.78,430.85Z" style="fill:#263238"></path><path d="M137.08,430.85a.5.5,0,0,1-.5-.5V326.58a.5.5,0,0,1,.5-.5.5.5,0,0,1,.5.5V430.35A.5.5,0,0,1,137.08,430.85Z" style="fill:#263238"></path><path d="M147.39,430.85a.5.5,0,0,1-.5-.5V326.58a.5.5,0,0,1,.5-.5.5.5,0,0,1,.5.5V430.35A.5.5,0,0,1,147.39,430.85Z" style="fill:#263238"></path><path d="M157.7,430.85a.5.5,0,0,1-.5-.5V326.58a.5.5,0,0,1,1,0V430.35A.5.5,0,0,1,157.7,430.85Z" style="fill:#263238"></path><path d="M168,430.85a.5.5,0,0,1-.5-.5V326.58a.5.5,0,0,1,1,0V430.35A.5.5,0,0,1,168,430.85Z" style="fill:#263238"></path><path d="M178.32,430.85a.5.5,0,0,1-.5-.5V326.58a.5.5,0,0,1,.5-.5.5.5,0,0,1,.5.5V430.35A.5.5,0,0,1,178.32,430.85Z" style="fill:#263238"></path><path d="M188.63,430.85a.5.5,0,0,1-.5-.5V326.58a.5.5,0,0,1,.5-.5.5.5,0,0,1,.5.5V430.35A.5.5,0,0,1,188.63,430.85Z" style="fill:#263238"></path><path d="M198.94,430.85a.5.5,0,0,1-.5-.5V326.58a.5.5,0,0,1,.5-.5.5.5,0,0,1,.5.5V430.35A.5.5,0,0,1,198.94,430.85Z" style="fill:#263238"></path><path d="M209.24,430.85a.5.5,0,0,1-.5-.5V326.58a.5.5,0,0,1,.5-.5.5.5,0,0,1,.5.5V430.35A.5.5,0,0,1,209.24,430.85Z" style="fill:#263238"></path><path d="M219.55,430.85a.5.5,0,0,1-.5-.5V326.58a.5.5,0,0,1,.5-.5.5.5,0,0,1,.5.5V430.35A.5.5,0,0,1,219.55,430.85Z" style="fill:#263238"></path><path d="M229.86,430.85a.5.5,0,0,1-.5-.5V326.58a.5.5,0,0,1,.5-.5.5.5,0,0,1,.5.5V430.35A.5.5,0,0,1,229.86,430.85Z" style="fill:#263238"></path><path d="M240.17,430.85a.5.5,0,0,1-.5-.5V326.58a.5.5,0,0,1,1,0V430.35A.5.5,0,0,1,240.17,430.85Z" style="fill:#263238"></path><path d="M250.48,430.85a.5.5,0,0,1-.5-.5V326.58a.5.5,0,0,1,1,0V430.35A.5.5,0,0,1,250.48,430.85Z" style="fill:#263238"></path><path d="M260.79,430.85a.5.5,0,0,1-.5-.5V326.58a.5.5,0,0,1,.5-.5.5.5,0,0,1,.5.5V430.35A.5.5,0,0,1,260.79,430.85Z" style="fill:#263238"></path><path d="M271.1,430.85a.5.5,0,0,1-.5-.5V326.58a.5.5,0,0,1,.5-.5.5.5,0,0,1,.5.5V430.35A.5.5,0,0,1,271.1,430.85Z" style="fill:#263238"></path><path d="M281.4,430.85a.5.5,0,0,1-.5-.5V326.58a.5.5,0,0,1,.5-.5.5.5,0,0,1,.5.5V430.35A.5.5,0,0,1,281.4,430.85Z" style="fill:#263238"></path><path d="M291.71,430.85a.5.5,0,0,1-.5-.5V326.58a.5.5,0,0,1,.5-.5.5.5,0,0,1,.5.5V430.35A.5.5,0,0,1,291.71,430.85Z" style="fill:#263238"></path><path d="M302,430.85a.5.5,0,0,1-.5-.5V326.58a.5.5,0,0,1,.5-.5.5.5,0,0,1,.5.5V430.35A.5.5,0,0,1,302,430.85Z" style="fill:#263238"></path><path d="M312.33,430.85a.5.5,0,0,1-.5-.5V326.58a.5.5,0,0,1,1,0V430.35A.5.5,0,0,1,312.33,430.85Z" style="fill:#263238"></path><path d="M322.64,430.85a.5.5,0,0,1-.5-.5V326.58a.5.5,0,0,1,1,0V430.35A.5.5,0,0,1,322.64,430.85Z" style="fill:#263238"></path><path d="M333,430.85a.5.5,0,0,1-.5-.5V326.58a.5.5,0,0,1,.5-.5.5.5,0,0,1,.5.5V430.35A.5.5,0,0,1,333,430.85Z" style="fill:#263238"></path><path d="M343.26,430.85a.5.5,0,0,1-.5-.5V326.58a.5.5,0,0,1,.5-.5.5.5,0,0,1,.5.5V430.35A.5.5,0,0,1,343.26,430.85Z" style="fill:#263238"></path><path d="M353.56,430.85a.5.5,0,0,1-.5-.5V326.58a.5.5,0,0,1,.5-.5.5.5,0,0,1,.5.5V430.35A.5.5,0,0,1,353.56,430.85Z" style="fill:#263238"></path><path d="M363.87,430.85a.5.5,0,0,1-.5-.5V326.58a.5.5,0,0,1,.5-.5.5.5,0,0,1,.5.5V430.35A.5.5,0,0,1,363.87,430.85Z" style="fill:#263238"></path><path d="M374.18,430.85a.5.5,0,0,1-.5-.5V326.58a.5.5,0,0,1,.5-.5.5.5,0,0,1,.5.5V430.35A.5.5,0,0,1,374.18,430.85Z" style="fill:#263238"></path><path d="M384.49,430.85a.5.5,0,0,1-.5-.5V326.58a.5.5,0,1,1,1,0V430.35A.5.5,0,0,1,384.49,430.85Z" style="fill:#263238"></path><path d="M394.8,430.85a.5.5,0,0,1-.5-.5V326.58a.5.5,0,0,1,1,0V430.35A.5.5,0,0,1,394.8,430.85Z" style="fill:#263238"></path><path d="M405.11,430.85a.5.5,0,0,1-.5-.5V326.58a.5.5,0,0,1,.5-.5.5.5,0,0,1,.5.5V430.35A.5.5,0,0,1,405.11,430.85Z" style="fill:#263238"></path><path d="M415.42,430.85a.5.5,0,0,1-.5-.5V326.58a.5.5,0,0,1,.5-.5.5.5,0,0,1,.5.5V430.35A.5.5,0,0,1,415.42,430.85Z" style="fill:#263238"></path><path d="M425.73,430.85a.5.5,0,0,1-.5-.5V326.58a.5.5,0,0,1,.5-.5.5.5,0,0,1,.5.5V430.35A.5.5,0,0,1,425.73,430.85Z" style="fill:#263238"></path><path d="M436,430.85a.5.5,0,0,1-.5-.5V326.58a.5.5,0,0,1,.5-.5.5.5,0,0,1,.5.5V430.35A.5.5,0,0,1,436,430.85Z" style="fill:#263238"></path><path d="M446.34,430.85a.5.5,0,0,1-.5-.5V326.58a.5.5,0,0,1,.5-.5.5.5,0,0,1,.5.5V430.35A.5.5,0,0,1,446.34,430.85Z" style="fill:#263238"></path><path d="M456.65,430.85a.5.5,0,0,1-.5-.5V326.58a.5.5,0,0,1,1,0V430.35A.5.5,0,0,1,456.65,430.85Z" style="fill:#263238"></path><path d="M467,430.85a.5.5,0,0,1-.5-.5V326.58a.5.5,0,0,1,1,0V430.35A.5.5,0,0,1,467,430.85Z" style="fill:#263238"></path><path d="M477.27,430.85a.5.5,0,0,1-.5-.5V326.58a.5.5,0,0,1,.5-.5.5.5,0,0,1,.5.5V430.35A.5.5,0,0,1,477.27,430.85Z" style="fill:#263238"></path><path d="M487.58,430.85a.5.5,0,0,1-.5-.5V326.58a.5.5,0,0,1,.5-.5.5.5,0,0,1,.5.5V430.35A.5.5,0,0,1,487.58,430.85Z" style="fill:#263238"></path><path d="M497.88,430.85a.5.5,0,0,1-.5-.5V326.58a.5.5,0,0,1,.5-.5.5.5,0,0,1,.5.5V430.35A.5.5,0,0,1,497.88,430.85Z" style="fill:#263238"></path><path d="M508.19,430.85a.5.5,0,0,1-.5-.5V326.58a.5.5,0,0,1,.5-.5.5.5,0,0,1,.5.5V430.35A.5.5,0,0,1,508.19,430.85Z" style="fill:#263238"></path><path d="M518.5,430.85a.5.5,0,0,1-.5-.5V326.58a.5.5,0,0,1,.5-.5.5.5,0,0,1,.5.5V430.35A.5.5,0,0,1,518.5,430.85Z" style="fill:#263238"></path><path d="M528.81,430.85a.5.5,0,0,1-.5-.5V326.58a.5.5,0,1,1,1,0V430.35A.5.5,0,0,1,528.81,430.85Z" style="fill:#263238"></path><path d="M539.12,430.85a.5.5,0,0,1-.5-.5V326.58a.5.5,0,0,1,1,0V430.35A.5.5,0,0,1,539.12,430.85Z" style="fill:#263238"></path><path d="M549.43,430.85a.5.5,0,0,1-.5-.5V326.58a.5.5,0,0,1,.5-.5.5.5,0,0,1,.5.5V430.35A.5.5,0,0,1,549.43,430.85Z" style="fill:#263238"></path><path d="M559.74,430.85a.5.5,0,0,1-.5-.5V326.58a.5.5,0,0,1,.5-.5.5.5,0,0,1,.5.5V430.35A.5.5,0,0,1,559.74,430.85Z" style="fill:#263238"></path><path d="M570.05,430.85a.5.5,0,0,1-.5-.5V326.58a.5.5,0,0,1,.5-.5.5.5,0,0,1,.5.5V430.35A.5.5,0,0,1,570.05,430.85Z" style="fill:#263238"></path><path d="M580.35,430.85a.5.5,0,0,1-.5-.5V326.58a.5.5,0,0,1,.5-.5.5.5,0,0,1,.5.5V430.35A.5.5,0,0,1,580.35,430.85Z" style="fill:#263238"></path><path d="M590.66,430.85a.5.5,0,0,1-.5-.5V326.58a.5.5,0,0,1,.5-.5.5.5,0,0,1,.5.5V430.35A.5.5,0,0,1,590.66,430.85Z" style="fill:#263238"></path><path d="M601,430.85a.5.5,0,0,1-.5-.5V326.58a.5.5,0,1,1,1,0V430.35A.5.5,0,0,1,601,430.85Z" style="fill:#263238"></path><path d="M611.28,430.85a.5.5,0,0,1-.5-.5V326.58a.5.5,0,1,1,1,0V430.35A.5.5,0,0,1,611.28,430.85Z" style="fill:#263238"></path><path d="M621.59,430.85a.5.5,0,0,1-.5-.5V326.58a.5.5,0,0,1,.5-.5.5.5,0,0,1,.5.5V430.35A.5.5,0,0,1,621.59,430.85Z" style="fill:#263238"></path><path d="M631.9,430.85a.5.5,0,0,1-.5-.5V326.58a.5.5,0,0,1,.5-.5.5.5,0,0,1,.5.5V430.35A.5.5,0,0,1,631.9,430.85Z" style="fill:#263238"></path><path d="M642.21,430.85a.5.5,0,0,1-.5-.5V326.58a.5.5,0,0,1,.5-.5.5.5,0,0,1,.5.5V430.35A.5.5,0,0,1,642.21,430.85Z" style="fill:#263238"></path><path d="M652.51,430.85a.5.5,0,0,1-.5-.5V326.58a.5.5,0,0,1,.5-.5.5.5,0,0,1,.5.5V430.35A.5.5,0,0,1,652.51,430.85Z" style="fill:#263238"></path><path d="M662.82,430.85a.5.5,0,0,1-.5-.5V326.58a.5.5,0,0,1,.5-.5.5.5,0,0,1,.5.5V430.35A.5.5,0,0,1,662.82,430.85Z" style="fill:#263238"></path><path d="M673.13,430.85a.5.5,0,0,1-.5-.5V326.58a.5.5,0,0,1,1,0V430.35A.5.5,0,0,1,673.13,430.85Z" style="fill:#263238"></path><path d="M683.44,430.85a.5.5,0,0,1-.5-.5V326.58a.5.5,0,1,1,1,0V430.35A.5.5,0,0,1,683.44,430.85Z" style="fill:#263238"></path><path d="M683.42,338.61H55.28a.5.5,0,0,1-.5-.5.5.5,0,0,1,.5-.5H683.42a.5.5,0,0,1,.5.5A.51.51,0,0,1,683.42,338.61Z" style="fill:#263238"></path><path d="M683.42,350.14H55.28a.5.5,0,1,1,0-1H683.42a.5.5,0,0,1,0,1Z" style="fill:#263238"></path><path d="M683.42,361.67H55.28a.5.5,0,0,1,0-1H683.42a.5.5,0,0,1,0,1Z" style="fill:#263238"></path><path d="M683.42,373.2H55.28a.5.5,0,0,1,0-1H683.42a.5.5,0,0,1,0,1Z" style="fill:#263238"></path><path d="M683.42,384.73H55.28a.5.5,0,1,1,0-1H683.42a.5.5,0,1,1,0,1Z" style="fill:#263238"></path><path d="M683.42,396.26H55.28a.5.5,0,1,1,0-1H683.42a.5.5,0,0,1,0,1Z" style="fill:#263238"></path><path d="M683.42,407.79H55.28a.5.5,0,0,1,0-1H683.42a.5.5,0,0,1,0,1Z" style="fill:#263238"></path><path d="M683.42,419.32H55.28a.5.5,0,0,1,0-1H683.42a.5.5,0,0,1,0,1Z" style="fill:#263238"></path><path d="M683.42,430.85H55.28a.5.5,0,0,1-.5-.5.5.5,0,0,1,.5-.5H683.42a.51.51,0,0,1,.5.5A.5.5,0,0,1,683.42,430.85Z" style="fill:#263238"></path><rect x="54.62" y="429.92" width="634.44" height="9.37" style="fill:#263238"></rect><path d="M689.06,439.79H54.62a.5.5,0,0,1-.5-.5v-9.37a.5.5,0,0,1,.5-.5H689.06a.5.5,0,0,1,.5.5v9.37A.5.5,0,0,1,689.06,439.79Zm-633.94-1H688.56v-8.37H55.12Z" style="fill:#263238"></path></g><g id="freepik--character-1--inject-189"><path d="M218.93,192.79s-4,6.39-5.05,7.58-2.68,1.63-3,3.12,1,3.72.15,4.61-4.75,1.19-4.75,1.19a14.46,14.46,0,0,1-3.12,3c-1.94,1.34-4.76,2.52-5.8,2.52s-3.27-1.93-3.27-1.93-.15-2.08-5.35-5.94-7.13-4-7.13-4l3.71-12.64s2.08-4.16,11.89-6.53,15-.15,17.24,1.78S218.93,192.79,218.93,192.79Z" style="fill:#fff"></path><path d="M197.38,215.28c-1.17,0-3.2-1.71-3.6-2.05a.51.51,0,0,1-.17-.34s-.3-2-5.15-5.58-6.86-3.91-6.88-3.92a.45.45,0,0,1-.36-.22.48.48,0,0,1-.07-.42l3.71-12.63c.12-.26,2.33-4.48,12.25-6.88,10.94-2.65,16,.44,17.69,1.89,2.29,2,4.5,7.25,4.59,7.47a.5.5,0,0,1,0,.46c-.16.26-4,6.43-5.1,7.64a8.39,8.39,0,0,1-1.38,1.18c-.71.51-1.33,1-1.48,1.71a5.48,5.48,0,0,0,.22,2c.24,1.07.5,2.19-.2,2.89-.9.89-3.84,1.23-4.85,1.32a15.29,15.29,0,0,1-3.1,2.9C201.48,214,198.59,215.28,197.38,215.28Zm-2.81-2.69a7.56,7.56,0,0,0,2.81,1.69,14.87,14.87,0,0,0,5.51-2.43,13.86,13.86,0,0,0,3-2.86.49.49,0,0,1,.37-.2c1.53-.12,3.91-.52,4.44-1,.31-.31.12-1.15-.07-2a6,6,0,0,1-.22-2.39,3.88,3.88,0,0,1,1.88-2.32,7.41,7.41,0,0,0,1.21-1c.89-1,4.15-6.16,4.87-7.29-.46-1.05-2.37-5.26-4.23-6.86-1.55-1.35-6.31-4.22-16.79-1.68-9.4,2.28-11.54,6.24-11.56,6.28l-3.53,12c.93.28,3,1.17,6.8,4C193.52,209.82,194.4,211.9,194.57,212.59Z" style="fill:#263238"></path><path d="M202.28,197.25s1.34.74,2.23.15,2.23-2.38,2.83-2.83,4-.59,4.31-2.37-1-3.72,0-4,2.67.75,2.67.75,1.34,8.47,8,5.2,5.05-11.74,2.23-16.2-11.45-4.16-11.45-4.16a29.51,29.51,0,0,0-8.17-6c-4.76-2.22-13.52-.29-16.64,4.31s-1.34,5.65-1.34,5.65l-1,3.72s-1.34-.3-1.79,2.37-1.18,10.7-.14,12.34,6.68,3.86,8.91,4.16a4.34,4.34,0,0,0,3.72-1.49C197.08,198.59,202.28,197.25,202.28,197.25Z" style="fill:#263238"></path><path d="M193.49,200.91a4.7,4.7,0,0,1-.63,0c-2.27-.3-8.12-2.57-9.28-4.38s-.28-10.54.08-12.69a3.66,3.66,0,0,1,1.27-2.52,1.76,1.76,0,0,1,.62-.26l.87-3.07a1.75,1.75,0,0,1-.38-.81c-.29-1.25.34-3,1.86-5.28,3.42-5,12.51-6.71,17.27-4.48a29.94,29.94,0,0,1,8.17,5.89c1.44,0,8.94.12,11.66,4.4,1.85,2.93,3.24,7.63,2.14,11.52a8.36,8.36,0,0,1-4.57,5.4,5.54,5.54,0,0,1-5.17.29c-2.5-1.3-3.34-4.7-3.53-5.63a3.49,3.49,0,0,0-2.09-.58,2.71,2.71,0,0,0,.13,1.11,6.39,6.39,0,0,1,.23,2.51c-.26,1.58-2.26,2.08-3.58,2.41a5.88,5.88,0,0,0-.92.28,11.33,11.33,0,0,0-1,1,11.12,11.12,0,0,1-1.85,1.81,2.76,2.76,0,0,1-2.56,0c-2.4.62-5,1.35-5.33,1.53a2.4,2.4,0,0,0-.23.2A4.5,4.5,0,0,1,193.49,200.91ZM185.79,182c-.29,0-.88.4-1.14,2-.5,3-1.1,10.6-.22,12s6.31,3.63,8.56,3.93a3.43,3.43,0,0,0,3-1.09,2.61,2.61,0,0,1,.37-.31,54.21,54.21,0,0,1,5.8-1.71.54.54,0,0,1,.37.05c.3.16,1.19.52,1.71.17a12.59,12.59,0,0,0,1.66-1.64,9.93,9.93,0,0,1,1.14-1.17,3.9,3.9,0,0,1,1.28-.45c1.07-.26,2.68-.67,2.83-1.61a5.57,5.57,0,0,0-.21-2.11c-.21-.89-.47-2,.57-2.3,1.22-.34,2.89.69,3.08.8a.56.56,0,0,1,.23.35s.64,3.89,3.05,5.14a4.65,4.65,0,0,0,4.26-.31,7.38,7.38,0,0,0,4-4.77c1-3.59-.28-8-2-10.71-2.63-4.17-10.91-3.93-11-3.93a.51.51,0,0,1-.39-.16,29.09,29.09,0,0,0-8-5.83c-4.38-2.05-12.94-.42-16,4.13-2.25,3.32-1.83,4.7-1.48,5a.53.53,0,0,1,.21.56l-1,3.71a.49.49,0,0,1-.59.35Z" style="fill:#263238"></path><path d="M202.43,199.33s.75-8-.29-9.07-3.87,1.19-5.5,5.06-1.19,5.79-.15,6.24l1,.44a27,27,0,0,0-2.23,3.72" style="fill:#fff"></path><path d="M195.3,206.25a.52.52,0,0,1-.5-.53c0-.14,0-.55,2-3.49l-.49-.21c-.6-.26-2.39-1.52-.11-6.9,1.23-2.91,3.31-5.26,4.94-5.57a1.43,1.43,0,0,1,1.37.36c1.12,1.12.62,7.53.44,9.47a.49.49,0,0,1-.54.45.51.51,0,0,1-.46-.55c.35-3.74.39-8.12-.15-8.66,0,0-.15-.16-.47-.09-1.13.22-3,2.14-4.21,5-1.42,3.35-1.21,5.25-.41,5.59l1,.44a.52.52,0,0,1,.28.32.51.51,0,0,1-.07.43,28,28,0,0,0-2.15,3.49A.47.47,0,0,1,195.3,206.25Z" style="fill:#263238"></path><path d="M185.94,181.5s14.26-1.64,28.83,16.94l2.23-3s-7.43-10.56-18.28-14.87S187,177.78,187,177.78Z" style="fill:#fff"></path><path d="M214.77,198.94a.51.51,0,0,1-.4-.19C200.18,180.64,186.13,182,186,182a.47.47,0,0,1-.43-.17.48.48,0,0,1-.1-.46l1-3.71a.5.5,0,0,1,.05-.13c.33-.55,2.2-1.41,12.35,2.62,10.86,4.31,18.43,14.93,18.5,15a.49.49,0,0,1,0,.59l-2.23,3a.52.52,0,0,1-.4.2ZM187,181c3.6,0,15.49,1.28,27.8,16.67l1.61-2.16c-1.28-1.72-8.26-10.59-17.84-14.39-8.56-3.4-10.71-3.11-11.12-3l-.8,2.86Zm.36-2.82Z" style="fill:#263238"></path><path d="M165,202.45s12.19,3.57,16.35,5.35,14.86,10.85,14.86,10.85.45-5.35.3-6.39a17.86,17.86,0,0,0-6.84-8.62c-4-2.38-14.41-5.65-16.05-5.2A77.63,77.63,0,0,0,166,202Z" style="fill:#0A5F5F"></path><path d="M196.19,219.15a.49.49,0,0,1-.32-.12c-.11-.09-10.69-9-14.74-10.77S165,203,164.84,202.93a.52.52,0,0,1-.36-.45.5.5,0,0,1,.31-.49l1-.45a74.91,74.91,0,0,1,7.64-3.58c1.85-.5,12.44,2.88,16.44,5.25s6.89,7.68,7.07,9a60.53,60.53,0,0,1-.29,6.5.49.49,0,0,1-.31.42A.41.41,0,0,1,196.19,219.15Zm-29.76-16.79c3.27,1,11.72,3.53,15.1,5,3.58,1.54,11.72,8.2,14.24,10.3a47.56,47.56,0,0,0,.22-5.31,17.57,17.57,0,0,0-6.59-8.26c-4.21-2.49-14.31-5.51-15.67-5.15A71,71,0,0,0,166.43,202.36Z" style="fill:#263238"></path><path d="M107.89,244.1s-4.08,4.31-1.2,11S124.19,282,124.19,282l8.64,10.55,1.68,2.4,3.83-12-7.67-5.76a73.16,73.16,0,0,1-6.48-15.59c-2.39-8.63-3.83-12.23-6-15.82a16.13,16.13,0,0,0-6.48-5.52" style="fill:#fff"></path><path d="M134.51,295.44a.51.51,0,0,1-.41-.21l-1.68-2.4-8.61-10.52c-.62-.85-14.72-20.29-17.58-27-3-6.94,1.25-11.53,1.29-11.58a.5.5,0,1,1,.73.69c-.16.17-3.81,4.18-1.1,10.49,2.82,6.59,17.3,26.57,17.45,26.77l8.62,10.53,1.12,1.6,3.42-10.69-7.39-5.55a.57.57,0,0,1-.13-.14,74.58,74.58,0,0,1-6.53-15.71c-2.27-8.18-3.71-12-5.94-15.71a15.57,15.57,0,0,0-6.25-5.31.5.5,0,0,1-.25-.66.5.5,0,0,1,.66-.26,16.53,16.53,0,0,1,6.7,5.72c2.28,3.8,3.75,7.68,6.05,16a73.61,73.61,0,0,0,6.37,15.38l7.59,5.7a.48.48,0,0,1,.18.55l-3.84,12a.47.47,0,0,1-.4.34Z" style="fill:#263238"></path><path d="M329.53,363.79h-.07l-26.59-7.44a.24.24,0,0,1-.18-.3.26.26,0,0,1,.31-.18l26.59,7.44a.26.26,0,0,1,.18.31A.26.26,0,0,1,329.53,363.79Z" style="fill:#263238"></path><path d="M335.23,362.52h-.07L298.3,352.2a.25.25,0,0,1-.18-.31.26.26,0,0,1,.31-.17L335.29,362a.26.26,0,0,1,.18.31A.25.25,0,0,1,335.23,362.52Z" style="fill:#263238"></path><path d="M338.28,360.51h-.07L293.9,348.11a.26.26,0,0,1-.18-.31.27.27,0,0,1,.31-.18L338.34,360a.26.26,0,0,1,.18.31A.25.25,0,0,1,338.28,360.51Z" style="fill:#263238"></path><path d="M341.32,358.49h-.06l-49.1-13.73a.25.25,0,0,1-.17-.31.26.26,0,0,1,.31-.17L341.39,358a.25.25,0,0,1,.17.31A.25.25,0,0,1,341.32,358.49Z" style="fill:#263238"></path><path d="M342.07,355.83H342L290.43,341.4a.26.26,0,0,1-.18-.31.25.25,0,0,1,.31-.17l51.57,14.42a.26.26,0,0,1,.18.31A.25.25,0,0,1,342.07,355.83Z" style="fill:#263238"></path><path d="M344.47,353.64h-.07l-53.23-14.89a.25.25,0,0,1,.13-.48l53.24,14.89a.25.25,0,0,1,.17.31A.25.25,0,0,1,344.47,353.64Z" style="fill:#263238"></path><path d="M345.61,351.09h-.06L291.1,335.85a.26.26,0,0,1-.18-.31.25.25,0,0,1,.31-.17l54.45,15.23a.26.26,0,0,1,.18.31A.27.27,0,0,1,345.61,351.09Z" style="fill:#263238"></path><path d="M346.76,348.55h-.07l-55.05-15.4a.25.25,0,0,1-.17-.31.25.25,0,0,1,.31-.17l55,15.4a.24.24,0,0,1,.18.3A.26.26,0,0,1,346.76,348.55Z" style="fill:#263238"></path><path d="M347.2,345.81h-.07l-54.54-15.26a.25.25,0,1,1,.13-.48l54.55,15.26a.24.24,0,0,1,.17.3A.26.26,0,0,1,347.2,345.81Z" style="fill:#263238"></path><path d="M347.45,343h-.07l-53.23-14.9a.24.24,0,0,1-.18-.3.26.26,0,0,1,.31-.18l53.24,14.89a.25.25,0,0,1,.17.31A.25.25,0,0,1,347.45,343Z" style="fill:#263238"></path><path d="M347.39,340.13h-.06l-52.44-14.67a.27.27,0,0,1-.18-.31A.25.25,0,0,1,295,325l52.44,14.66a.27.27,0,0,1,.18.31A.28.28,0,0,1,347.39,340.13Z" style="fill:#263238"></path><path d="M347.27,337.23h-.07l-51.57-14.43a.25.25,0,1,1,.14-.48l51.57,14.43a.24.24,0,0,1,.17.3A.26.26,0,0,1,347.27,337.23Z" style="fill:#263238"></path><path d="M346.69,334.19h-.06l-45.3-12.66a.25.25,0,0,1-.17-.31.27.27,0,0,1,.31-.18l45.29,12.67a.25.25,0,0,1,.17.31A.25.25,0,0,1,346.69,334.19Z" style="fill:#263238"></path><path d="M344.15,330.62h-.07l-39.52-11.06a.25.25,0,0,1-.17-.31.25.25,0,0,1,.3-.17l39.53,11.06a.25.25,0,0,1-.07.49Z" style="fill:#263238"></path><path d="M342.59,327.32h-.06l-31.91-8.93a.24.24,0,0,1-.17-.3.26.26,0,0,1,.31-.18l31.9,8.93a.25.25,0,0,1-.07.49Z" style="fill:#263238"></path><path d="M332.93,361.88h-.07a.27.27,0,0,1-.18-.31l8.93-31.9a.25.25,0,1,1,.48.13l-8.92,31.91A.26.26,0,0,1,332.93,361.88Z" style="fill:#263238"></path><path d="M335.23,362.52h-.07a.24.24,0,0,1-.17-.3l8.92-31.91a.25.25,0,0,1,.31-.17.25.25,0,0,1,.17.31l-8.92,31.9A.25.25,0,0,1,335.23,362.52Z" style="fill:#263238"></path><path d="M338.28,360.51h-.07a.25.25,0,0,1-.17-.31l7.43-26.59a.25.25,0,0,1,.49.14l-7.44,26.59A.25.25,0,0,1,338.28,360.51Z" style="fill:#263238"></path><path d="M341.32,358.49h-.06a.25.25,0,0,1-.18-.31l6.32-22.59a.26.26,0,0,1,.31-.18.27.27,0,0,1,.18.31l-6.33,22.6A.25.25,0,0,1,341.32,358.49Z" style="fill:#263238"></path><path d="M329.53,363.79h-.07a.26.26,0,0,1-.18-.31l10.42-37.21a.24.24,0,0,1,.3-.18.26.26,0,0,1,.18.31l-10.41,37.22A.26.26,0,0,1,329.53,363.79Z" style="fill:#263238"></path><path d="M326.86,363.05h-.06a.26.26,0,0,1-.18-.31L337,325.51a.26.26,0,0,1,.31-.17.25.25,0,0,1,.17.31L327.1,362.86A.26.26,0,0,1,326.86,363.05Z" style="fill:#263238"></path><path d="M324.21,362.3h-.07a.24.24,0,0,1-.17-.3l10.86-38.84a.25.25,0,0,1,.31-.17.24.24,0,0,1,.17.31l-10.86,38.83A.25.25,0,0,1,324.21,362.3Z" style="fill:#263238"></path><path d="M321.22,362.74h-.07a.25.25,0,0,1-.17-.31l11.28-40.31a.25.25,0,1,1,.48.13l-11.28,40.32A.25.25,0,0,1,321.22,362.74Z" style="fill:#263238"></path><path d="M318.47,362.29h-.06a.26.26,0,0,1-.18-.31l11.45-40.91a.25.25,0,0,1,.31-.18.25.25,0,0,1,.17.31l-11.45,40.91A.25.25,0,0,1,318.47,362.29Z" style="fill:#263238"></path><path d="M315.76,361.75h-.07a.24.24,0,0,1-.17-.31L327.11,320a.25.25,0,1,1,.48.13L316,361.57A.25.25,0,0,1,315.76,361.75Z" style="fill:#263238"></path><path d="M313.16,360.81h-.07a.25.25,0,0,1-.17-.31l11.42-40.81a.24.24,0,0,1,.3-.18.26.26,0,0,1,.18.31L313.4,360.62A.24.24,0,0,1,313.16,360.81Z" style="fill:#263238"></path><path d="M310.58,359.76h-.07a.24.24,0,0,1-.17-.3l11.28-40.32a.25.25,0,0,1,.31-.17.25.25,0,0,1,.17.31l-11.28,40.31A.25.25,0,0,1,310.58,359.76Z" style="fill:#263238"></path><path d="M308.25,357.84h-.06a.25.25,0,0,1-.18-.31l10.84-38.73a.26.26,0,0,1,.31-.18.25.25,0,0,1,.17.31L308.5,357.66A.27.27,0,0,1,308.25,357.84Z" style="fill:#263238"></path><path d="M305.6,357.1h-.07a.25.25,0,0,1-.17-.31l10.64-38a.25.25,0,1,1,.48.14l-10.64,38A.25.25,0,0,1,305.6,357.1Z" style="fill:#263238"></path><path d="M302.94,356.35h-.07a.24.24,0,0,1-.18-.3l10.42-37.22a.24.24,0,0,1,.3-.17.24.24,0,0,1,.18.3l-10.41,37.22A.26.26,0,0,1,302.94,356.35Z" style="fill:#263238"></path><path d="M301,353H301a.25.25,0,0,1-.17-.31l9.67-34.56a.26.26,0,0,1,.31-.18.25.25,0,0,1,.17.31l-9.67,34.56A.25.25,0,0,1,301,353Z" style="fill:#263238"></path><path d="M298.36,352.21h-.06a.25.25,0,0,1-.18-.31l8.93-31.9a.25.25,0,0,1,.31-.17.24.24,0,0,1,.17.3L298.61,352A.27.27,0,0,1,298.36,352.21Z" style="fill:#263238"></path><path d="M296.45,348.81h-.07a.27.27,0,0,1-.18-.31l8.19-29.25a.25.25,0,0,1,.3-.17.26.26,0,0,1,.18.31l-8.18,29.25A.26.26,0,0,1,296.45,348.81Z" style="fill:#263238"></path><path d="M294,348.11h-.06a.26.26,0,0,1-.18-.31l7.44-26.59a.27.27,0,0,1,.31-.18.25.25,0,0,1,.17.31l-7.44,26.59A.25.25,0,0,1,294,348.11Z" style="fill:#263238"></path><path d="M292.23,344.76h-.07a.25.25,0,0,1-.17-.31l5.95-21.26a.26.26,0,0,1,.31-.18.25.25,0,0,1,.17.31l-5.95,21.27A.25.25,0,0,1,292.23,344.76Z" style="fill:#263238"></path><path d="M290.49,341.41h-.06a.26.26,0,0,1-.18-.31l5.21-18.61a.25.25,0,1,1,.48.14l-5.21,18.61A.25.25,0,0,1,290.49,341.41Z" style="fill:#263238"></path><path d="M293.79,325l.17-.39S288,329.4,282,328.74l-.26.94-.27.95c5.48,2.55,8.05,9.71,8.05,9.71l.05-.37a21.75,21.75,0,0,0,1.47,3.95l-.06.39s-4.64-10.44-12.17-14l.37-1.34.38-1.35c8.28.87,17.68-5.69,17.68-5.69l-.17.41A22.06,22.06,0,0,0,293.79,325Z" style="fill:#263238"></path><path d="M291,344.81a.49.49,0,0,1-.45-.29c-.05-.11-4.66-10.32-11.94-13.76a.5.5,0,0,1-.27-.58l.76-2.69a.49.49,0,0,1,.53-.36c8,.84,17.26-5.55,17.35-5.61a.5.5,0,0,1,.6,0,.51.51,0,0,1,.15.58l-.18.41a.47.47,0,0,1-.19.23,21.41,21.41,0,0,0-3.23,2.56.51.51,0,0,1-.5.12c-1.67,1.2-6.33,4.17-11.24,3.83l-.31,1.09c4.43,2.28,6.89,7.31,7.66,9.14a.52.52,0,0,1,.34.35,21.35,21.35,0,0,0,1.43,3.86.49.49,0,0,1,.05.29l-.06.39a.51.51,0,0,1-.43.42Zm-11.58-14.76a24.59,24.59,0,0,1,8.42,7.85c-1.23-2.25-3.41-5.35-6.56-6.82a.49.49,0,0,1-.27-.58l.53-1.9a.5.5,0,0,1,.53-.36c3.44.38,6.88-1.14,9.11-2.42A24.55,24.55,0,0,1,280,328.16Z" style="fill:#263238"></path><path d="M349.16,348.51c-3.45,12.33-18.55,18.87-33.73,14.63s-29.31-19-25.87-31.3,23.18-17.58,38.36-13.33S352.61,336.18,349.16,348.51ZM291.7,332.44c-3.2,11.44,9.93,25.11,24,29.05s28.1-2.14,31.3-13.58-5.63-23.91-19.71-27.85S294.9,321,291.7,332.44Z" style="fill:#fff"></path><path d="M324.75,364.94a35.15,35.15,0,0,1-9.45-1.32c-15.07-4.22-29.81-19.08-26.22-31.92,1.66-5.94,7-10.63,15.11-13.22a43.34,43.34,0,0,1,23.87-.46,32.47,32.47,0,0,1,17.87,12.17c4.1,5.79,5.42,12.35,3.71,18.45h0c-1.71,6.11-6.23,11-12.74,13.86A30.56,30.56,0,0,1,324.75,364.94ZM317,317.56a41.51,41.51,0,0,0-12.47,1.87c-7.76,2.48-12.89,6.94-14.46,12.54-3.44,12.3,10.9,26.59,25.53,30.69a31.49,31.49,0,0,0,20.93-1.08c6.23-2.7,10.55-7.39,12.18-13.2h0c1.63-5.82.36-12.07-3.56-17.61A31.45,31.45,0,0,0,327.79,319,40.59,40.59,0,0,0,317,317.56Zm7.39,45.64a32.63,32.63,0,0,1-8.78-1.23c-14-3.92-27.7-17.73-24.36-29.67h0c3.34-11.93,22.21-16.64,36.22-12.72a30.24,30.24,0,0,1,16.62,11.3c3.81,5.39,5,11.49,3.44,17.17s-5.8,10.25-11.85,12.88A28.32,28.32,0,0,1,324.36,363.2Zm-32.18-30.63h0C289,344,302.29,357.21,315.85,361a29.21,29.21,0,0,0,19.4-1c5.78-2.5,9.78-6.85,11.29-12.23s.33-11.18-3.3-16.32a29.23,29.23,0,0,0-16.07-10.92C313.61,316.75,295.37,321.18,292.18,332.57Z" style="fill:#263238"></path><path d="M279.59,327.61l-.38,1.36-.38,1.35s-5.24.36-6.53,0L239,321l.86-3,.85-3.05L274,324.23C275.29,324.59,279.59,327.61,279.59,327.61Z" style="fill:#263238"></path><path d="M274.66,331a12,12,0,0,1-2.5-.18l-33.33-9.33a.47.47,0,0,1-.3-.23.51.51,0,0,1-.05-.38l1.71-6.09a.5.5,0,0,1,.61-.35l33.33,9.33c1.34.37,5.3,3.14,5.75,3.45a.51.51,0,0,1,.19.55l-.76,2.71a.48.48,0,0,1-.44.36C278.52,330.85,276.46,331,274.66,331Zm-35.08-10.33,32.85,9.18a33.13,33.13,0,0,0,6,0l.56-2a33.33,33.33,0,0,0-5.15-3.11L241,315.52Z" style="fill:#263238"></path><path d="M240.49,322.07a.3.3,0,0,1-.13,0l-1.57-.44a.5.5,0,0,1-.35-.61l1.79-6.37a.5.5,0,0,1,.61-.35l1.57.44a.5.5,0,0,1,.3.24.5.5,0,0,1,0,.38L241,321.71a.52.52,0,0,1-.23.3A.54.54,0,0,1,240.49,322.07Zm-1-1.28.6.17,1.52-5.41-.61-.17Z" style="fill:#263238"></path><path d="M105.49,249.13c-.24-7.67,36.45-48,36.45-48l23,1.28s18.69,5.91,21.33,7.59,17.51,14.15,17.51,14.15,11,7.44,12.71,12.95,5.52,42,5.52,42l19.42,30.94,10.32,6.48a77.81,77.81,0,0,1,3.11,7.19c1.2,3.36,1,3.6-.72,3.6s-4.31-2.88-4.31-2.88a38.08,38.08,0,0,1-5.76,1.2,7.42,7.42,0,0,1-5.52-2.88,59.29,59.29,0,0,1-3.35-6.71c-.48-1.2-27.34-28.78-27.34-28.78l-11.28-30.7s-6.23,14.63-7,16.07-8.4,29.5-8.4,29.5-5.75,6.23-26.38.48-22.06-10.08-22.06-10.08l6-27.58,5-36.21s-25.9,24.94-28.3,25.66-5-1.92-5-1.92" style="fill:#fff"></path><path d="M254.18,327.82c-1.61,0-3.76-2.08-4.47-2.82a34.22,34.22,0,0,1-5.6,1.14,7.9,7.9,0,0,1-5.94-3.11,58.34,58.34,0,0,1-3.4-6.8c-.61-1.1-16.62-17.72-27.23-28.61a.49.49,0,0,1-.11-.18l-10.84-29.52c-1.5,3.51-5.87,13.73-6.47,14.94-.52,1-5.28,18.15-8.36,29.41a.41.41,0,0,1-.12.2c-.24.27-6.2,6.4-26.88.63-20.3-5.67-22.25-9.93-22.41-10.4a.57.57,0,0,1,0-.26l6-27.58,4.83-34.75c-5.3,5.08-25.22,24.1-27.47,24.78-2.65.8-5.41-1.93-5.53-2a.5.5,0,0,1,0-.7.5.5,0,0,1,.71,0s2.45,2.41,4.54,1.79c1.67-.5,17.72-15.55,28.09-25.54a.52.52,0,0,1,.58-.09.51.51,0,0,1,.27.52l-5,36.21-6,27.45c.41.64,3.53,4.59,21.68,9.65,18.74,5.23,25,.41,25.8-.26.94-3.45,7.68-28,8.39-29.46s6.88-15.89,6.94-16a.51.51,0,0,1,.48-.3.48.48,0,0,1,.45.33L208.33,287c4.66,4.79,26.88,27.65,27.37,28.87A57.19,57.19,0,0,0,239,322.5a6.85,6.85,0,0,0,5.09,2.64,35.44,35.44,0,0,0,5.62-1.18.51.51,0,0,1,.51.14c1,1,2.88,2.72,3.94,2.72.71,0,.9-.06.94-.12.21-.3-.47-2.19-.69-2.81a74.49,74.49,0,0,0-3-7l-10.19-6.4a.46.46,0,0,1-.16-.15l-19.43-30.94a.58.58,0,0,1-.07-.21c0-.37-3.85-36.48-5.5-41.88s-12.4-12.61-12.51-12.69-14.92-12.5-17.5-14.14-20-7.14-21.15-7.51l-22.74-1.27c-12.68,13.94-36.35,41.55-36.16,47.44a.5.5,0,0,1-.49.51.49.49,0,0,1-.51-.48c-.25-7.79,35.08-46.67,36.58-48.32a.54.54,0,0,1,.4-.16L165,202l.12,0c.77.25,18.79,5.95,21.45,7.65s16.95,13.68,17.56,14.19c.41.27,11.16,7.56,12.87,13.19,1.64,5.39,5.24,39.29,5.52,41.94l19.31,30.75,10.21,6.41a.49.49,0,0,1,.18.2,77.9,77.9,0,0,1,3.14,7.25c.76,2.12,1,3.11.57,3.73S254.94,327.82,254.18,327.82Z" style="fill:#263238"></path><path d="M202.15,271.63c4-1.25,11.88-4,18.18-7.89-1.24-10.67-2.86-23.5-3.8-26.6-1.68-5.51-12.71-12.95-12.71-12.95S189,211.72,186.31,210,165,202.45,165,202.45l-23-1.28S133,211,124,221.86c.67,4.53,3,12,11.15,15.22,4.88-4.61,8.75-8.33,8.75-8.33l-5,36.21-6,27.58s1.44,4.32,22.06,10.08,26.38-.48,26.38-.48,7.68-28.06,8.4-29.5,7-16.07,7-16.07Z" style="fill:#0A5F5F"></path><path d="M170.31,305.56a58.6,58.6,0,0,1-15.55-2.46c-20.3-5.67-22.25-9.93-22.41-10.4a.57.57,0,0,1,0-.26l6-27.58,4.83-34.75c-1.47,1.4-4.35,4.16-7.71,7.33a.51.51,0,0,1-.53.1c-8.47-3.33-10.82-11.2-11.46-15.6a.49.49,0,0,1,.11-.39c8.93-10.76,17.9-20.62,18-20.72a.54.54,0,0,1,.4-.16L165,202l.12,0c.77.25,18.79,5.95,21.45,7.65s16.95,13.68,17.56,14.19c.41.27,11.16,7.56,12.87,13.19,1,3.15,2.61,16.25,3.82,26.68a.51.51,0,0,1-.23.48,83.58,83.58,0,0,1-18.3,7.94.5.5,0,0,1-.62-.3l-5.09-13.88c-1.5,3.51-5.87,13.73-6.47,14.94-.52,1-5.28,18.15-8.36,29.41a.41.41,0,0,1-.12.2C181.48,302.66,178.65,305.56,170.31,305.56Zm-37-13.08c.41.64,3.53,4.59,21.68,9.65,18.74,5.23,25,.41,25.8-.26.94-3.45,7.68-28,8.39-29.46s6.88-15.89,6.94-16a.51.51,0,0,1,.48-.3.48.48,0,0,1,.45.33L202.46,271a82.49,82.49,0,0,0,17.34-7.53c-1.71-14.71-3-23.77-3.75-26.19-1.61-5.29-12.4-12.61-12.51-12.69s-14.92-12.5-17.5-14.14-20-7.14-21.15-7.51l-22.74-1.27c-1.23,1.36-9.44,10.45-17.66,20.33.65,4.17,2.88,11.33,10.51,14.49,4.77-4.51,8.51-8.11,8.51-8.11a.52.52,0,0,1,.58-.09.5.5,0,0,1,.27.52l-5,36.21Z" style="fill:#263238"></path><path d="M196.62,257.07a.56.56,0,0,1-.27-.08L193,254.83a.5.5,0,0,1,.54-.84l2.17,1.4-1.35-4.15a.5.5,0,0,1,.95-.31l1.79,5.48a.49.49,0,0,1-.17.55A.51.51,0,0,1,196.62,257.07Z" style="fill:#263238"></path><path d="M193.83,248.51a.5.5,0,0,1-.47-.35l-.81-2.47a.5.5,0,0,1,.95-.31l.81,2.47a.5.5,0,0,1-.32.63A.45.45,0,0,1,193.83,248.51Z" style="fill:#263238"></path><path d="M143.86,229.25a.51.51,0,0,1-.48-.36l-4.79-16.07a.5.5,0,0,1,.33-.62.49.49,0,0,1,.62.34l3.54,11.86-.68-10.73a.5.5,0,0,1,.47-.53.5.5,0,0,1,.53.47l1,15.11a.5.5,0,0,1-.41.52Z" style="fill:#263238"></path><path d="M145.3,258a.47.47,0,0,1-.35-.15.5.5,0,0,1,0-.71s.77-.77,2.82-2.6a.5.5,0,1,1,.67.75c-2,1.81-2.78,2.55-2.79,2.56A.47.47,0,0,1,145.3,258Z" style="fill:#263238"></path><path d="M150.46,253.37a.52.52,0,0,1-.38-.17.49.49,0,0,1,0-.7c2.92-2.54,6.51-5.58,10.68-9a77.71,77.71,0,0,1,26.58-14,.49.49,0,0,1,.6.36.5.5,0,0,1-.35.61,76.44,76.44,0,0,0-26.19,13.81c-4.17,3.45-7.75,6.48-10.66,9A.54.54,0,0,1,150.46,253.37Z" style="fill:#263238"></path><path d="M151.54,247.23a.5.5,0,0,1-.34-.86c2.87-2.64,11.22-8,11.58-8.21a.5.5,0,0,1,.54.84c-.09.06-8.63,5.52-11.45,8.1A.46.46,0,0,1,151.54,247.23Z" style="fill:#263238"></path><path d="M168.08,429s-3.59.24-3.35,2.16-1.2,12.95-.72,14.39,4.79,1.67,7.91,1.43,7-1,7-1,7.19,1.2,9.11,1.2,5.28-1,5-2.87-2.88-2.88-4.8-4.32a18.2,18.2,0,0,1-5.52-5.76c-1.44-2.63-5.75-7.19-7.91-6.71S168.08,429,168.08,429Z" style="fill:#fff"></path><path d="M188,447.73c-1.84,0-8.25-1-9.11-1.19-.59.11-4.07.73-6.92.95-.78.06-7.66.52-8.43-1.78-.27-.83-.06-3.63.33-8.16a58.07,58.07,0,0,0,.37-6.32,1.84,1.84,0,0,1,.4-1.39c.91-1.09,3-1.3,3.38-1.33s4.63-1,6.68-1.43c2.54-.55,7,4.25,8.46,7a18,18,0,0,0,5.38,5.6c.51.38,1.08.74,1.64,1.08,1.55,1,3.15,1.95,3.35,3.57A2,2,0,0,1,193,446C191.83,447.25,189.31,447.73,188,447.73Zm-9.11-2.19H179c.07,0,7.17,1.19,9,1.19,1.43,0,3.45-.54,4.23-1.43a1.07,1.07,0,0,0,.31-.88c-.14-1.16-1.47-2-2.88-2.85a19.59,19.59,0,0,1-1.72-1.13,18.46,18.46,0,0,1-5.66-5.92c-1.48-2.72-5.61-6.86-7.36-6.46-2.16.48-6.72,1.44-6.72,1.44h-.07a4.57,4.57,0,0,0-2.72,1,.78.78,0,0,0-.18.62,52.82,52.82,0,0,1-.36,6.53c-.26,3-.61,7.07-.38,7.77.3.88,3.69,1.38,7.4,1.1,3.06-.24,6.87-.95,6.9-1ZM168.08,429h0Z" style="fill:#263238"></path><path d="M177.68,326.12s3.12,6,6.95,20.38,5.76,20.39,5.52,22.79-11.27,50.12-12,55.16,0,4.8-1,7-3.12,3.83-5,2.87a8.08,8.08,0,0,1-4.08-5.27c-.24-1.92,1-24.23,1-24.23s-1-23-.72-25.66-11.51-38.85-11.51-38.85Z" style="fill:#fff"></path><path d="M173.32,435.06a3,3,0,0,1-1.38-.33,8.49,8.49,0,0,1-4.35-5.66c-.25-1.94.9-23.4.95-24.31s-.95-23-.71-25.68c.16-1.86-6.78-24.14-11.49-38.66a.49.49,0,0,1,.19-.56l20.87-14.15a.48.48,0,0,1,.4-.08.49.49,0,0,1,.32.26c.13.25,3.19,6.21,7,20.49.92,3.45,1.73,6.42,2.42,9,2.26,8.29,3.3,12.07,3.11,14-.12,1.13-2.45,11.55-5.15,23.62-3,13.53-6.46,28.86-6.85,31.56a33,33,0,0,0-.37,4.2,6.14,6.14,0,0,1-.63,2.89,6,6,0,0,1-3.19,3.24A3.32,3.32,0,0,1,173.32,435.06ZM157.4,340.47c1.65,5.08,11.66,36.1,11.42,38.7s.71,25.36.72,25.59c-.41,7.75-1.15,22.7-1,24.18a7.65,7.65,0,0,0,3.8,4.9,2.15,2.15,0,0,0,1.74.07,5,5,0,0,0,2.62-2.71,5.17,5.17,0,0,0,.54-2.51,34.06,34.06,0,0,1,.38-4.31c.39-2.74,3.83-18.09,6.86-31.64,2.59-11.53,5-22.43,5.13-23.5.17-1.73-.91-5.71-3.07-13.63-.7-2.55-1.51-5.52-2.43-9-3.17-11.86-5.86-18.05-6.67-19.77Z" style="fill:#263238"></path><path d="M172.16,434.28c1.92,1,4.08-.72,5-2.87s.24-1.92,1-7c.09-.65.35-2,.74-3.86H168.28c-.18,4.16-.29,7.7-.2,8.42A8.08,8.08,0,0,0,172.16,434.28Z" style="fill:#fff"></path><path d="M173.32,435.06a3,3,0,0,1-1.38-.33h0a8.49,8.49,0,0,1-4.35-5.66c0-.24-.12-1,.19-8.5a.5.5,0,0,1,.5-.48H178.9a.51.51,0,0,1,.39.19.49.49,0,0,1,.1.41c-.41,1.94-.65,3.23-.74,3.83a33,33,0,0,0-.37,4.2,6.14,6.14,0,0,1-.63,2.89,6,6,0,0,1-3.19,3.24A3.32,3.32,0,0,1,173.32,435.06Zm-4.56-14c-.24,5.76-.23,7.46-.18,7.85a7.65,7.65,0,0,0,3.8,4.9h0a2.15,2.15,0,0,0,1.74.07,5,5,0,0,0,2.62-2.71,5.17,5.17,0,0,0,.54-2.51,34.06,34.06,0,0,1,.38-4.31c.08-.56.29-1.64.62-3.29Z" style="fill:#263238"></path><path d="M184.63,346.5c-3.83-14.39-6.95-20.38-6.95-20.38l-20.87,14.15s6.87,21.16,10,32.31a45.87,45.87,0,0,0,22.2-9.84C188.08,359.12,186.62,353.94,184.63,346.5Z" style="fill:#263238"></path><path d="M166.81,373.08a.51.51,0,0,1-.49-.37c-3.08-11-9.92-32.07-10-32.29a.49.49,0,0,1,.19-.56l20.87-14.15a.48.48,0,0,1,.4-.08.49.49,0,0,1,.32.26c.13.25,3.19,6.21,7,20.49.91,3.43,1.72,6.39,2.41,8.93.81,3,1.46,5.36,2,7.3a.52.52,0,0,1-.17.52,46.2,46.2,0,0,1-22.45,9.95Zm-9.41-32.61c.91,2.8,6.85,21.23,9.77,31.55a45.2,45.2,0,0,0,21.27-9.47c-.49-1.89-1.11-4.18-1.87-7-.7-2.54-1.5-5.5-2.42-8.94-3.17-11.86-5.86-18.05-6.67-19.77Z" style="fill:#263238"></path><path d="M133.79,290.14s-3.36,16.07-1,21.83,13.67,20.14,13.67,20.14l5.76,42s-12.48,10.55-16.79,15.34-22.31,21.35-22.31,21.35-4.07,2.4-4.31,4.8,2.39,6.95,5.75,7.43a9.44,9.44,0,0,0,5.76-1s20.62-15.11,30.22-20.14,22.3-17.75,22.3-17.75,2.88-2.88,2.88-4.08,3.36-50.6,3.6-54.92S181.51,299,181.51,299Z" style="fill:#fff"></path><path d="M116,423.61a10.61,10.61,0,0,1-1.45-.1c-3.66-.53-6.45-5.35-6.18-8s4-4.86,4.51-5.15c.93-.86,18.08-16.66,22.24-21.28,4-4.42,15-13.81,16.62-15.22L146,332.32c-1.11-1.43-11.34-14.6-13.65-20.16-2.43-5.83.79-21.46.93-22.12a.5.5,0,0,1,.58-.39l47.73,8.88a.49.49,0,0,1,.4.53c0,.22-1.92,21.87-2.15,26.13-.11,1.89-.82,12.49-1.57,23.71-.95,14.31-2,30.52-2,31.18,0,1.34-2.52,3.93-3,4.43-.12.13-12.87,12.82-22.42,17.84s-29.95,19.95-30.16,20.11A9.65,9.65,0,0,1,116,423.61Zm18.2-132.88c-.53,2.7-3,16-.89,21,2.35,5.62,13.49,19.88,13.6,20a.43.43,0,0,1,.1.24l5.76,42a.51.51,0,0,1-.17.45c-.13.1-12.5,10.58-16.74,15.3S113.68,411,113.5,411.15l-.08.06c-1.08.63-3.9,2.66-4.08,4.42-.22,2.21,2.33,6.46,5.33,6.89a8.86,8.86,0,0,0,5.43-.9c.17-.12,20.73-15.16,30.24-20.16s22.06-17.53,22.19-17.66c1.31-1.31,2.73-3.11,2.73-3.72s1-16.23,2-31.25c.75-11.22,1.45-21.81,1.56-23.7.22-3.93,1.84-22.55,2.12-25.7Z" style="fill:#263238"></path><path d="M114.6,423a9.44,9.44,0,0,0,5.76-1s3.76-2.75,8.81-6.3l-10-10.56c-3.44,3.21-6,5.59-6,5.59s-4.07,2.4-4.31,4.8S111.24,422.53,114.6,423Z" style="fill:#fff"></path><path d="M116,423.61a10.61,10.61,0,0,1-1.45-.1c-3.66-.53-6.45-5.35-6.18-8s4-4.86,4.51-5.15c.33-.31,2.79-2.57,6-5.56a.5.5,0,0,1,.71,0l10,10.57a.51.51,0,0,1,.14.39.5.5,0,0,1-.21.36c-5,3.5-8.77,6.27-8.81,6.3A9.65,9.65,0,0,1,116,423.61Zm3.19-17.72c-3.26,3-5.67,5.26-5.67,5.26l-.08.06c-1.08.63-3.9,2.66-4.08,4.42-.22,2.21,2.33,6.46,5.33,6.89h0a9,9,0,0,0,5.43-.9s3.55-2.6,8.31-5.95Z" style="fill:#263238"></path><path d="M179.36,325.16c.24-4.32,2.15-26.14,2.15-26.14l-47.72-8.88s-3.36,16.07-1,21.83,13.67,20.14,13.67,20.14L151,364.63a43.38,43.38,0,0,0,25.66,1.85C177.64,351.16,179.2,328.05,179.36,325.16Z" style="fill:#263238"></path><path d="M167,368.13a46,46,0,0,1-16.17-3,.52.52,0,0,1-.32-.4L146,332.32c-1.11-1.43-11.34-14.6-13.65-20.16-2.43-5.83.79-21.46.93-22.12a.5.5,0,0,1,.58-.39l47.73,8.88a.49.49,0,0,1,.4.53c0,.22-1.92,21.87-2.15,26.13h0c-.11,1.88-.81,12.43-1.56,23.6-.4,6.06-.82,12.37-1.18,17.72a.49.49,0,0,1-.38.45A41.32,41.32,0,0,1,167,368.13Zm-15.54-3.87a43,43,0,0,0,24.74,1.82c.35-5.28.76-11.43,1.15-17.36.75-11.16,1.45-21.71,1.56-23.59.22-3.93,1.84-22.55,2.12-25.7l-46.8-8.7c-.53,2.7-3,16-.89,21,2.35,5.62,13.49,19.88,13.6,20a.43.43,0,0,1,.1.24Zm28-39.1h0Z" style="fill:#263238"></path><path d="M114.36,408.38s.72-1.92-1.2,2.4,0,9.11,1.68,10.31,8.88-1.44,7.2-.24-1.68,10.56-1.68,10.56,1.68,9.35,2.88,10.79,2.87,2.88,1.91,3.6-3.59,1.91-8.63.95-8.63-2.15-10.31-5-3.36-10.79-6.24-16.07-4.08-10.07-1.44-12,9.6-3.6,9.6-3.6S114.36,406,114.36,408.38Z" style="fill:#fff"></path><path d="M120,447.61a19.94,19.94,0,0,1-3.58-.36c-5.12-1-8.89-2.25-10.65-5.28a37.29,37.29,0,0,1-2.39-6.25,61.42,61.42,0,0,0-3.86-9.83c-3.47-6.36-3.91-10.73-1.29-12.64s8.84-3.45,9.68-3.66c1.23-.79,5-3.06,6.35-2.3a1,1,0,0,1,.2.13l.21.07c.48.2.29.68.15,1.07a.53.53,0,0,1-.23.26c-.18.39-.49,1.05-1,2.16-1.8,4.06-.05,8.59,1.51,9.71.79.56,3.68,0,5.23-.36,1.71-.36,2.16-.45,2.38.05s-.25.76-.41.88c-1,.72-1.47,6.37-1.47,10.15.63,3.47,2,9.49,2.76,10.47l.72.82c.9,1,1.67,1.86,1.59,2.68a1.14,1.14,0,0,1-.48.82A9,9,0,0,1,120,447.61Zm-6.48-39.49c-.92,0-3.25,1.13-5.13,2.36l-.16.07c-.07,0-6.89,1.67-9.41,3.51-2.87,2.09-.24,8,1.58,11.35a62.22,62.22,0,0,1,3.93,10,38.35,38.35,0,0,0,2.3,6.06c1.58,2.7,5.13,3.87,10,4.79,5.24,1,7.64-.41,8.24-.87.08-.05.09-.09.09-.11,0-.38-.76-1.27-1.35-1.92-.25-.27-.5-.56-.74-.84-1.25-1.5-2.81-10.06-3-11,0-1.49.06-7.91,1.3-10.31l-.6.13c-2.67.55-5,.94-6,.19-2-1.45-3.79-6.54-1.84-10.92.52-1.18.85-1.93,1.09-2.41h0A.54.54,0,0,0,113.53,408.12Zm1.33.26h0Z" style="fill:#263238"></path><polygon points="241.47 310.05 235.24 316.05 231.77 311.6 238.19 304.66 241.47 310.05" style="fill:#fff"></polygon><path d="M235.24,316.55h0a.52.52,0,0,1-.36-.19l-3.47-4.44a.5.5,0,0,1,0-.65l6.42-6.94a.48.48,0,0,1,.42-.16.52.52,0,0,1,.38.24l3.28,5.39a.5.5,0,0,1-.08.62l-6.24,6A.48.48,0,0,1,235.24,316.55Zm-2.82-4.92,2.87,3.67,5.55-5.33-2.73-4.48Z" style="fill:#263238"></path></g></svg>